<svg width="652" height="352" viewBox="0 0 652 352" fill="none" xmlns="http://www.w3.org/2000/svg">
<g clip-path="url(#clip0_16_2)">
<path d="M41.2981 293.979L39.2643 304.185C39.1111 304.965 38.9509 305.759 38.7768 306.547C37.077 306.194 35.3146 306.293 33.6646 306.832C34.9737 308.703 36.1468 310.666 37.1749 312.705C35.8934 316.655 34.0129 320.305 30.8647 322.945C28.7622 324.669 26.2509 325.822 23.5731 326.293C20.8954 326.764 18.1415 326.537 15.5769 325.634L15.6675 325.23C12.2826 318.661 14.1213 310.378 18.328 304.31C20.4737 301.317 23.0159 298.629 25.8849 296.32C28.7265 293.952 31.798 291.827 34.8417 289.73C35.5253 289.26 36.3335 289.004 37.1631 288.996C37.9927 288.987 38.806 289.226 39.499 289.683C40.1921 290.139 40.7334 290.791 41.0539 291.557C41.3743 292.322 41.4593 293.166 41.2981 293.979Z" fill="#E4E4E4"/>
<path d="M16.3012 350.19C15.4452 343.953 14.5649 337.637 15.1652 331.333C15.6987 325.735 17.4058 320.267 20.8827 315.784C22.728 313.408 24.9735 311.373 27.5181 309.77C28.1818 309.352 28.7919 310.403 28.1317 310.819C23.729 313.602 20.3237 317.712 18.4067 322.555C16.2894 327.942 15.9495 333.814 16.3172 339.535C16.538 342.995 17.0053 346.431 17.4769 349.866C17.5148 350.021 17.492 350.185 17.413 350.324C17.334 350.463 17.2049 350.567 17.052 350.614C16.8965 350.656 16.7307 350.635 16.5907 350.555C16.4506 350.476 16.3476 350.344 16.304 350.189L16.3012 350.19Z" fill="#F2F2F2"/>
<path d="M23.6472 37.3625C53.4827 36.8437 83.3214 36.7691 113.163 37.1389C143.001 37.5109 172.828 38.3293 202.646 39.5939C219.378 40.3037 236.103 41.1539 252.821 42.1446C254.164 42.2241 254.16 40.134 252.821 40.0548C223.033 38.2917 193.224 36.9725 163.392 36.0972C133.565 35.2242 103.73 34.7975 73.8852 34.8173C57.1383 34.8284 40.3923 34.9802 23.6472 35.2727C22.3042 35.2961 22.3 37.386 23.6472 37.3625Z" fill="#E6E6E6"/>
<path d="M231.572 24.2585L244.618 23.2874C245.951 23.1882 245.962 21.0975 244.618 21.1975L231.572 22.1687C230.239 22.2679 230.229 24.3586 231.572 24.2585Z" fill="#E6E6E6"/>
<path d="M231.572 36.7977L244.618 35.8266C245.951 35.7274 245.962 33.6367 244.618 33.7367L231.572 34.7079C230.239 34.8071 230.229 36.8978 231.572 36.7977Z" fill="#E6E6E6"/>
<path d="M230.591 31.0714L249.14 32.7569C250.478 32.8785 250.47 30.7879 249.14 30.667L230.591 28.9815C229.252 28.8599 229.26 30.9505 230.591 31.0714Z" fill="#E6E6E6"/>
<path d="M31.3682 21.448C30.4609 21.4424 29.5721 21.704 28.8125 22.2002C28.0529 22.6964 27.4561 23.4052 27.0965 24.2383C26.6943 25.0537 26.5701 25.9785 26.743 26.8711C26.9159 27.7638 27.3763 28.5753 28.0539 29.1814C28.6909 29.7235 29.4549 30.0951 30.2745 30.2617C31.094 30.4282 31.9425 30.3842 32.7404 30.1337C33.5565 29.8486 34.2641 29.3176 34.7659 28.6136C35.2678 27.9097 35.5391 27.0675 35.5426 26.2029C35.5791 25.2437 35.3193 24.2966 34.7986 23.4903C34.2778 22.684 33.5215 22.0577 32.6323 21.6965C32.3652 21.6239 32.0802 21.6599 31.8394 21.7966C31.5987 21.9333 31.4218 22.1596 31.3472 22.4263C31.2813 22.6932 31.3202 22.9753 31.456 23.2144C31.5917 23.4535 31.8139 23.6315 32.0769 23.7117C32.2589 23.782 31.9105 23.6222 32.0806 23.7148C32.1505 23.7529 32.2217 23.7873 32.2903 23.828C32.3487 23.8625 32.4045 23.9004 32.4613 23.9374C32.6563 24.0648 32.3661 23.844 32.4907 23.9584C32.5988 24.0577 32.706 24.1545 32.8042 24.264C32.8414 24.3054 32.9869 24.4206 32.8738 24.3401C32.7873 24.2785 32.8404 24.293 32.8738 24.3424C32.8991 24.38 32.9258 24.4165 32.9508 24.4542C33.0323 24.5775 33.1063 24.7055 33.1726 24.8376C33.1879 24.8682 33.202 24.8994 33.2176 24.9299C33.2468 24.9868 33.2892 25.0018 33.2205 24.9304C33.1547 24.8622 33.1966 24.8669 33.2201 24.9325C33.2356 24.9756 33.2524 25.0182 33.2675 25.0615C33.3165 25.2025 33.3576 25.346 33.3906 25.4915C33.406 25.5588 33.4183 25.6265 33.4314 25.6941C33.4781 25.9341 33.4246 25.545 33.4359 25.7232C33.4453 25.872 33.4563 26.0193 33.4537 26.1687C33.4525 26.2371 33.4496 26.3054 33.4448 26.3736C33.4424 26.4076 33.4386 26.4415 33.4364 26.4755C33.4255 26.6395 33.4252 26.4156 33.4481 26.4003C33.4004 26.5395 33.3687 26.6837 33.3537 26.8301C33.335 26.8951 33.3128 26.9586 33.2919 27.0229C33.2193 27.2471 33.3602 26.9007 33.2827 27.0539C33.219 27.1855 33.1477 27.3134 33.0693 27.4369C33.0352 27.4886 32.9069 27.6053 33.0118 27.5241C33.1257 27.4359 32.9521 27.5877 32.9151 27.6268C32.8675 27.677 32.8181 27.7255 32.7669 27.7722C32.7342 27.8042 32.6996 27.8343 32.6633 27.8623C32.6567 27.8589 32.8379 27.7412 32.7402 27.8035C32.6161 27.8827 32.4985 27.9674 32.3677 28.0364C32.3525 28.0444 32.1852 28.1219 32.1859 28.1246C32.1787 28.0964 32.4009 28.0464 32.2484 28.0957C32.2163 28.106 32.1849 28.1185 32.153 28.1293C32.0141 28.1761 31.8724 28.2138 31.7286 28.2424C31.6957 28.2489 31.6609 28.2522 31.6285 28.2606C31.5205 28.2886 31.7317 28.2442 31.738 28.2479C31.6582 28.2445 31.5783 28.2515 31.5003 28.269C31.352 28.2774 31.2034 28.2774 31.0552 28.2689C31.0209 28.2669 30.9867 28.2635 30.9524 28.2615C30.8728 28.2569 30.8144 28.1995 30.9203 28.2618C31.0021 28.3099 30.9953 28.2748 30.9229 28.2614C30.889 28.2552 30.855 28.2499 30.8211 28.2435C30.6744 28.2161 30.5293 28.1805 30.3865 28.1371C30.3097 28.1136 30.2344 28.0864 30.1586 28.0599C30.1255 28.0503 30.0934 28.0379 30.0625 28.0229C30.062 28.0143 30.2578 28.1165 30.1544 28.0608C30.0239 27.9904 29.889 27.9315 29.7616 27.8546C29.6936 27.8135 29.6282 27.7689 29.5621 27.725C29.533 27.7075 29.5054 27.6877 29.4794 27.6658C29.4816 27.657 29.6414 27.805 29.5575 27.7251C29.4515 27.624 29.338 27.5335 29.2375 27.4258C29.2145 27.4012 29.1928 27.3754 29.1699 27.3507L29.1477 27.3254C29.0911 27.2562 29.0901 27.2565 29.1446 27.3264C29.2 27.3427 29.1974 27.4035 29.1449 27.3245C29.1262 27.2964 29.1063 27.2691 29.0876 27.2409C29.0027 27.12 28.9304 26.9908 28.8716 26.8552C28.8767 26.8513 28.9622 27.1067 28.8968 26.9139C28.8845 26.8775 28.8706 26.8417 28.8585 26.8052C28.8345 26.7328 28.8134 26.6596 28.7951 26.5856C28.7771 26.5123 28.7678 26.4367 28.7496 26.3637C28.7189 26.2406 28.7675 26.4607 28.762 26.4553C28.7446 26.438 28.752 26.3313 28.7507 26.3058C28.7423 26.1418 28.761 25.9827 28.7639 25.8197C28.7662 25.6934 28.7535 25.9181 28.7509 25.9115C28.7515 25.8737 28.7582 25.8362 28.7707 25.8005C28.7896 25.7146 28.8072 25.6287 28.8303 25.5437C28.8569 25.4464 28.8874 25.3502 28.9219 25.2553C28.9348 25.2198 28.9505 25.1848 28.9625 25.149C29.0065 25.0177 28.8755 25.3074 28.9477 25.1891C29.0471 25.0263 29.1211 24.8501 29.2267 24.6894C29.2517 24.6513 29.4037 24.439 29.323 24.5462C29.2427 24.6529 29.4056 24.4506 29.4365 24.4162C29.5646 24.2735 29.7153 24.1563 29.848 24.0196C29.9265 23.9387 29.7932 24.0595 29.7853 24.0651C29.8264 24.0357 29.8666 24.0053 29.9082 23.9766C29.9808 23.9266 30.0551 23.8793 30.1312 23.8348C30.2169 23.7845 30.3138 23.7471 30.3969 23.6939C30.495 23.6311 30.3218 23.7215 30.3187 23.7234C30.3635 23.7011 30.4104 23.6833 30.4587 23.67C30.5396 23.6413 30.8914 23.4895 30.9652 23.537C30.9619 23.5348 30.698 23.5582 30.9113 23.5445C30.9617 23.5413 31.0119 23.5364 31.0624 23.5343C31.1645 23.53 31.2662 23.5326 31.3682 23.5379C31.6447 23.5361 31.9094 23.4254 32.1049 23.2298C32.3005 23.0343 32.4111 22.7695 32.4129 22.493C32.407 22.2177 32.295 21.9553 32.1004 21.7606C31.9057 21.5659 31.6434 21.4539 31.3682 21.448Z" fill="#E6E6E6"/>
<path d="M45.9943 21.448C45.087 21.4424 44.1982 21.704 43.4386 22.2002C42.679 22.6964 42.0822 23.4052 41.7226 24.2383C41.3204 25.0537 41.1962 25.9785 41.3691 26.8711C41.542 27.7638 42.0024 28.5753 42.68 29.1814C43.317 29.7235 44.081 30.0951 44.9006 30.2617C45.7201 30.4282 46.5686 30.3842 47.3665 30.1337C48.1826 29.8486 48.8902 29.3176 49.392 28.6136C49.8939 27.9097 50.1652 27.0675 50.1687 26.2029C50.2052 25.2437 49.9454 24.2966 49.4247 23.4903C48.9039 22.684 48.1476 22.0577 47.2584 21.6965C46.9913 21.6239 46.7063 21.6599 46.4655 21.7966C46.2248 21.9333 46.0479 22.1596 45.9733 22.4263C45.9074 22.6932 45.9463 22.9753 46.0821 23.2144C46.2178 23.4535 46.44 23.6315 46.703 23.7117C46.885 23.782 46.5366 23.6222 46.7066 23.7148C46.7765 23.7529 46.8478 23.7873 46.9164 23.828C46.9748 23.8625 47.0306 23.9004 47.0874 23.9374C47.2824 24.0648 46.9922 23.844 47.1168 23.9584C47.2249 24.0577 47.3321 24.1545 47.4303 24.264C47.4675 24.3054 47.613 24.4206 47.4999 24.3401C47.4134 24.2785 47.4665 24.293 47.4999 24.3424C47.5252 24.38 47.5519 24.4165 47.5769 24.4542C47.6584 24.5775 47.7324 24.7055 47.7987 24.8376C47.814 24.8682 47.8281 24.8994 47.8437 24.9299C47.8729 24.9868 47.9153 25.0018 47.8466 24.9304C47.7808 24.8622 47.8227 24.8669 47.8462 24.9325C47.8616 24.9756 47.8785 25.0182 47.8936 25.0615C47.9426 25.2025 47.9837 25.346 48.0167 25.4915C48.0321 25.5588 48.0444 25.6265 48.0575 25.6941C48.1042 25.9341 48.0507 25.545 48.062 25.7232C48.0714 25.872 48.0824 26.0193 48.0798 26.1687C48.0786 26.2371 48.0757 26.3054 48.0709 26.3736C48.0685 26.4076 48.0647 26.4415 48.0625 26.4755C48.0516 26.6395 48.0513 26.4156 48.0742 26.4003C48.0265 26.5395 47.9948 26.6837 47.9798 26.8301C47.9611 26.8951 47.9389 26.9586 47.918 27.0229C47.8454 27.2471 47.9863 26.9007 47.9088 27.0539C47.8451 27.1855 47.7738 27.3134 47.6954 27.4369C47.6613 27.4886 47.533 27.6053 47.6379 27.5241C47.7518 27.4359 47.5782 27.5877 47.5412 27.6268C47.4936 27.677 47.4442 27.7255 47.393 27.7722C47.3603 27.8042 47.3257 27.8343 47.2894 27.8623C47.2828 27.8589 47.464 27.7412 47.3663 27.8035C47.2422 27.8827 47.1246 27.9674 46.9938 28.0364C46.9786 28.0444 46.8113 28.1219 46.812 28.1246C46.8048 28.0964 47.027 28.0464 46.8745 28.0957C46.8424 28.106 46.811 28.1185 46.7791 28.1293C46.6402 28.1761 46.4985 28.2138 46.3547 28.2424C46.3218 28.2489 46.287 28.2522 46.2546 28.2606C46.1466 28.2886 46.3578 28.2442 46.3641 28.2479C46.2843 28.2445 46.2044 28.2515 46.1264 28.269C45.9781 28.2774 45.8295 28.2774 45.6813 28.2689C45.647 28.2669 45.6128 28.2635 45.5785 28.2615C45.4989 28.2569 45.4405 28.1995 45.5464 28.2618C45.6282 28.3099 45.6214 28.2748 45.549 28.2614C45.5151 28.2552 45.4811 28.2499 45.4472 28.2435C45.3005 28.2161 45.1554 28.1805 45.0126 28.1371C44.9358 28.1136 44.8605 28.0864 44.7847 28.0599C44.7516 28.0503 44.7195 28.0379 44.6886 28.0229C44.6881 28.0143 44.8839 28.1165 44.7805 28.0608C44.65 27.9904 44.5151 27.9315 44.3877 27.8546C44.3197 27.8135 44.2543 27.7689 44.1882 27.725C44.1591 27.7075 44.1315 27.6877 44.1055 27.6658C44.1077 27.657 44.2675 27.805 44.1836 27.7251C44.0776 27.624 43.9641 27.5335 43.8636 27.4258C43.8406 27.4012 43.8189 27.3754 43.796 27.3507L43.7738 27.3254C43.7172 27.2562 43.7162 27.2565 43.7707 27.3264C43.8261 27.3427 43.8235 27.4035 43.771 27.3245C43.7523 27.2964 43.7324 27.2691 43.7137 27.2409C43.6288 27.12 43.5565 26.9908 43.4977 26.8552C43.5028 26.8513 43.5882 27.1067 43.5229 26.9139C43.5106 26.8775 43.4967 26.8417 43.4846 26.8052C43.4606 26.7328 43.4395 26.6596 43.4212 26.5856C43.4032 26.5123 43.3939 26.4367 43.3757 26.3637C43.345 26.2406 43.3936 26.4607 43.3881 26.4553C43.3707 26.438 43.3781 26.3313 43.3768 26.3058C43.3684 26.1418 43.3871 25.9827 43.39 25.8197C43.3923 25.6934 43.3796 25.9181 43.3769 25.9115C43.3776 25.8737 43.3843 25.8362 43.3968 25.8005C43.4157 25.7146 43.4333 25.6287 43.4564 25.5437C43.483 25.4464 43.5135 25.3502 43.548 25.2553C43.5609 25.2198 43.5766 25.1848 43.5886 25.149C43.6326 25.0177 43.5016 25.3074 43.5738 25.1891C43.6732 25.0263 43.7472 24.8501 43.8528 24.6894C43.8778 24.6513 44.0298 24.439 43.9491 24.5462C43.8688 24.6529 44.0317 24.4506 44.0626 24.4162C44.1907 24.2735 44.3414 24.1563 44.4741 24.0196C44.5526 23.9387 44.4193 24.0595 44.4114 24.0651C44.4525 24.0357 44.4927 24.0053 44.5343 23.9766C44.6069 23.9266 44.6812 23.8793 44.7573 23.8348C44.843 23.7845 44.9399 23.7471 45.023 23.6939C45.1211 23.6311 44.9479 23.7215 44.9448 23.7234C44.9896 23.7011 45.0365 23.6833 45.0848 23.67C45.1657 23.6413 45.5175 23.4895 45.5913 23.537C45.588 23.5348 45.3241 23.5582 45.5374 23.5445C45.5878 23.5413 45.638 23.5364 45.6885 23.5343C45.7906 23.53 45.8923 23.5326 45.9943 23.5379C46.2708 23.5361 46.5355 23.4254 46.731 23.2298C46.9266 23.0343 47.0372 22.7695 47.039 22.493C47.0331 22.2177 46.9211 21.9553 46.7265 21.7606C46.5318 21.5659 46.2695 21.4539 45.9943 21.448Z" fill="#E6E6E6"/>
<path d="M60.6204 21.448C59.7132 21.4424 58.8244 21.704 58.0647 22.2002C57.3051 22.6964 56.7084 23.4052 56.3488 24.2383C55.9465 25.0537 55.8224 25.9785 55.9953 26.8711C56.1682 27.7638 56.6286 28.5753 57.3062 29.1814C57.9432 29.7235 58.7072 30.0951 59.5267 30.2617C60.3463 30.4282 61.1947 30.3842 61.9927 30.1337C62.8087 29.8486 63.5164 29.3176 64.0182 28.6136C64.52 27.9097 64.7914 27.0675 64.7949 26.2029C64.8313 25.2437 64.5715 24.2966 64.0508 23.4903C63.5301 22.684 62.7737 22.0577 61.8846 21.6965C61.6174 21.6239 61.3324 21.6599 61.0917 21.7966C60.851 21.9333 60.674 22.1596 60.5994 22.4263C60.5336 22.6932 60.5725 22.9753 60.7082 23.2144C60.844 23.4535 61.0662 23.6315 61.3291 23.7117C61.5112 23.782 61.1628 23.6222 61.3328 23.7148C61.4027 23.7529 61.4739 23.7873 61.5426 23.828C61.6009 23.8625 61.6568 23.9004 61.7136 23.9374C61.9086 24.0648 61.6183 23.844 61.743 23.9584C61.8511 24.0577 61.9582 24.1545 62.0565 24.264C62.0936 24.3054 62.2392 24.4206 62.1261 24.3401C62.0395 24.2785 62.0927 24.293 62.126 24.3424C62.1513 24.38 62.1781 24.4165 62.2031 24.4542C62.2845 24.5775 62.3586 24.7055 62.4248 24.8376C62.4402 24.8682 62.4542 24.8994 62.4698 24.9299C62.4991 24.9868 62.5415 25.0018 62.4727 24.9304C62.407 24.8622 62.4488 24.8669 62.4724 24.9325C62.4878 24.9756 62.5047 25.0182 62.5197 25.0615C62.5687 25.2025 62.6098 25.346 62.6429 25.4915C62.6582 25.5588 62.6705 25.6265 62.6837 25.6941C62.7303 25.9341 62.6769 25.545 62.6882 25.7232C62.6976 25.872 62.7086 26.0193 62.706 26.1687C62.7048 26.2371 62.7018 26.3054 62.6971 26.3736C62.6946 26.4076 62.6909 26.4415 62.6886 26.4755C62.6778 26.6395 62.6774 26.4156 62.7004 26.4003C62.6526 26.5395 62.6209 26.6837 62.606 26.8301C62.5872 26.8951 62.565 26.9586 62.5442 27.0229C62.4715 27.2471 62.6125 26.9007 62.535 27.0539C62.4712 27.1855 62.4 27.3134 62.3215 27.4369C62.2875 27.4886 62.1591 27.6053 62.2641 27.5241C62.378 27.4359 62.2044 27.5877 62.1673 27.6268C62.1198 27.677 62.0704 27.7255 62.0192 27.7722C61.9864 27.8042 61.9518 27.8343 61.9156 27.8623C61.9089 27.8589 62.0901 27.7412 61.9925 27.8035C61.8683 27.8827 61.7508 27.9674 61.62 28.0364C61.6047 28.0444 61.4375 28.1219 61.4382 28.1246C61.431 28.0964 61.6532 28.0464 61.5006 28.0957C61.4686 28.106 61.4372 28.1185 61.4053 28.1293C61.2664 28.1761 61.1246 28.2138 60.9809 28.2424C60.948 28.2489 60.9132 28.2522 60.8807 28.2606C60.7727 28.2886 60.9839 28.2442 60.9903 28.2479C60.9105 28.2445 60.8305 28.2515 60.7525 28.269C60.6043 28.2774 60.4557 28.2774 60.3075 28.2689C60.2732 28.2669 60.239 28.2635 60.2047 28.2615C60.1251 28.2569 60.0666 28.1995 60.1726 28.2618C60.2543 28.3099 60.2475 28.2748 60.1751 28.2614C60.1413 28.2552 60.1072 28.2499 60.0734 28.2435C59.9266 28.2161 59.7816 28.1805 59.6388 28.1371C59.5619 28.1136 59.4866 28.0864 59.4108 28.0599C59.3778 28.0503 59.3456 28.0379 59.3147 28.0229C59.3143 28.0143 59.5101 28.1165 59.4067 28.0608C59.2762 27.9904 59.1412 27.9315 59.0138 27.8546C58.9458 27.8135 58.8805 27.7689 58.8144 27.725C58.7853 27.7075 58.7577 27.6877 58.7317 27.6658C58.7339 27.657 58.8937 27.805 58.8098 27.7251C58.7037 27.624 58.5902 27.5335 58.4898 27.4258C58.4668 27.4012 58.4451 27.3754 58.4222 27.3507L58.4 27.3254C58.3434 27.2562 58.3423 27.2565 58.3968 27.3264C58.4522 27.3427 58.4497 27.4035 58.3972 27.3245C58.3784 27.2964 58.3585 27.2691 58.3399 27.2409C58.255 27.12 58.1827 26.9908 58.1239 26.8552C58.129 26.8513 58.2144 27.1067 58.1491 26.9139C58.1368 26.8775 58.1229 26.8417 58.1108 26.8052C58.0868 26.7328 58.0657 26.6596 58.0474 26.5856C58.0293 26.5123 58.0201 26.4367 58.0019 26.3637C57.9712 26.2406 58.0198 26.4607 58.0143 26.4553C57.9968 26.438 58.0043 26.3313 58.0029 26.3058C57.9946 26.1418 58.0133 25.9827 58.0162 25.8197C58.0185 25.6934 58.0057 25.9181 58.0031 25.9115C58.0038 25.8737 58.0104 25.8362 58.0229 25.8005C58.0418 25.7146 58.0595 25.6287 58.0826 25.5437C58.1091 25.4464 58.1396 25.3502 58.1742 25.2553C58.1871 25.2198 58.2028 25.1848 58.2148 25.149C58.2588 25.0177 58.1277 25.3074 58.2 25.1891C58.2994 25.0263 58.3734 24.8501 58.4789 24.6894C58.5039 24.6513 58.656 24.439 58.5753 24.5462C58.4949 24.6529 58.6579 24.4506 58.6887 24.4162C58.8169 24.2735 58.9676 24.1563 59.1002 24.0196C59.1788 23.9387 59.0454 24.0595 59.0376 24.0651C59.0787 24.0357 59.1189 24.0053 59.1605 23.9766C59.233 23.9266 59.3073 23.8793 59.3834 23.8348C59.4691 23.7845 59.566 23.7471 59.6491 23.6939C59.7473 23.6311 59.5741 23.7215 59.571 23.7234C59.6158 23.7011 59.6627 23.6833 59.7109 23.67C59.7918 23.6413 60.1436 23.4895 60.2175 23.537C60.2141 23.5348 59.9503 23.5582 60.1636 23.5445C60.214 23.5413 60.2642 23.5364 60.3146 23.5343C60.4167 23.53 60.5185 23.5326 60.6204 23.5379C60.897 23.5361 61.1616 23.4254 61.3572 23.2298C61.5527 23.0343 61.6634 22.7695 61.6652 22.493C61.6593 22.2177 61.5473 21.9553 61.3526 21.7606C61.158 21.5659 60.8956 21.4539 60.6204 21.448Z" fill="#E6E6E6"/>
<path d="M271.915 252.874H15.675C12.4348 252.87 9.32837 251.581 7.03719 249.29C4.746 246.998 3.4572 243.891 3.45355 240.65V12.2239C3.45719 8.98301 4.74596 5.87594 7.03714 3.5843C9.32832 1.29267 12.4348 0.00363416 15.675 0H271.915C275.155 0.00363416 278.262 1.29267 280.553 3.5843C282.844 5.87594 284.133 8.98301 284.136 12.2239V240.65C284.133 243.891 282.844 246.998 280.553 249.29C278.262 251.581 275.155 252.87 271.915 252.874ZM15.675 1.39324C12.8041 1.39651 10.0517 2.53864 8.02172 4.56907C5.99169 6.5995 4.84979 9.35241 4.84652 12.2239V240.65C4.84986 243.521 5.9918 246.274 8.02182 248.305C10.0518 250.335 12.8042 251.477 15.675 251.48H271.915C274.786 251.477 277.538 250.335 279.568 248.305C281.598 246.274 282.74 243.521 282.743 240.65V12.2239C282.74 9.35241 281.598 6.5995 279.568 4.56907C277.538 2.53864 274.786 1.39651 271.915 1.39324H15.675Z" fill="#E6E6E6"/>
<path d="M15.2505 155.42L105.361 155.146L195.012 154.873L245.584 154.72C245.855 154.71 246.111 154.596 246.3 154.401C246.488 154.206 246.593 153.946 246.593 153.675C246.593 153.404 246.488 153.143 246.3 152.948C246.111 152.753 245.855 152.639 245.584 152.63L155.473 152.904L65.8227 153.177L15.2505 153.331C14.9797 153.34 14.7231 153.454 14.5348 153.649C14.3466 153.844 14.2413 154.104 14.2413 154.375C14.2413 154.647 14.3466 154.907 14.5348 155.102C14.7231 155.297 14.9797 155.411 15.2505 155.42Z" fill="#E6E6E6"/>
<path d="M60.7098 153.726L61.2669 120.82C61.2897 119.474 59.2003 119.474 59.1775 120.82L58.6203 153.726C58.5975 155.071 60.687 155.072 60.7098 153.726Z" fill="#E6E6E6"/>
<path d="M103.777 154.082L105.135 112.721L105.523 100.903C105.567 99.5579 103.477 99.5595 103.433 100.903L102.076 142.265L101.688 154.082C101.643 155.427 103.733 155.426 103.777 154.082Z" fill="#E6E6E6"/>
<path d="M146.728 81.2966C145.909 95.9466 144.394 139.158 143.574 153.808C143.499 155.152 145.589 155.147 145.664 153.808C146.483 139.158 147.998 95.9466 148.817 81.2966C148.893 79.9528 146.803 79.9571 146.728 81.2966Z" fill="#E6E6E6"/>
<path d="M189.472 139.108L189.216 153.189C189.192 154.534 191.281 154.534 191.306 153.189C191.608 136.558 192.384 137.1 192.469 132.407C192.494 131.061 190.404 131.061 190.38 132.407C190.38 132.407 189.775 122.477 189.472 139.108Z" fill="#E6E6E6"/>
<path d="M231.339 102.117L231.576 141.621L231.643 152.933C231.653 153.204 231.767 153.461 231.962 153.649C232.157 153.837 232.417 153.942 232.688 153.942C232.959 153.942 233.219 153.837 233.414 153.649C233.609 153.461 233.723 153.204 233.733 152.933L233.496 113.429L233.429 102.117C233.419 101.846 233.305 101.589 233.11 101.401C232.915 101.213 232.655 101.107 232.384 101.107C232.113 101.107 231.853 101.213 231.658 101.401C231.463 101.589 231.349 101.846 231.339 102.117Z" fill="#E6E6E6"/>
<path d="M15.4185 154.245C13.689 149.491 17.5877 144.919 21.5937 142.864C26.3932 140.403 31.9144 139.845 36.7647 137.472C43.9958 133.935 49.2627 127.586 53.9493 121.231C58.7729 114.691 63.1866 107.671 69.3159 102.236C72.5458 99.3087 76.3605 97.1007 80.5075 95.7583C85.7327 94.1273 91.2743 94.0154 96.6735 94.6727C107.83 96.0309 118.173 100.64 128.937 103.569C139.087 106.331 150.269 107.884 160.231 103.589C165.292 101.407 169.431 97.7477 173.876 94.5808C178.179 91.4838 182.989 89.1628 188.09 87.7228C198.09 84.9415 209.011 85.6842 218.321 90.386C226.879 94.6524 233.656 101.806 237.454 110.583C241.867 121.129 241.293 132.913 239.851 144.014C239.478 146.883 239.035 149.742 238.586 152.601C238.38 153.916 240.393 154.483 240.601 153.156C242.397 141.71 244.186 129.902 241.953 118.384C240.021 108.326 234.492 99.3173 226.399 93.0428C218.273 86.7512 208.17 83.5623 197.905 84.0485C192.526 84.2982 187.23 85.4762 182.252 87.5304C177.085 89.6683 172.709 92.837 168.265 96.1712C163.695 99.5992 158.984 102.435 153.31 103.553C147.807 104.637 142.082 104.231 136.603 103.207C125.297 101.094 114.759 96.251 103.55 93.7695C93.164 91.4703 81.9569 91.2406 72.6569 97.109C65.503 101.623 60.448 108.631 55.5967 115.398C50.7879 122.106 45.9183 129.278 38.8866 133.861C34.5971 136.656 29.7753 137.687 24.9769 139.259C20.1661 140.835 15.5476 143.493 13.586 148.423C12.7406 150.454 12.6757 152.725 13.4037 154.8C13.8599 156.054 15.8798 155.513 15.4185 154.245Z" fill="#E6E6E6"/>
<path d="M60.0167 116.27L60.0139 116.271L60.0196 116.27H60.0167Z" fill="#E6E6E6"/>
<path d="M63.6394 114.347C63.1565 113.492 62.3861 112.835 61.4651 112.495C60.544 112.154 59.5319 112.15 58.6086 112.485C58.1497 112.653 57.729 112.91 57.3714 113.243C57.0138 113.576 56.7266 113.978 56.5268 114.424C56.4868 114.519 56.4634 114.618 56.4308 114.715C56.3855 114.789 56.3311 114.855 56.2905 114.931C55.8575 115.794 55.7389 116.781 55.9552 117.723C56.1716 118.664 56.7092 119.5 57.4757 120.087C58.2421 120.675 59.1893 120.976 60.1541 120.94C61.1189 120.904 62.041 120.533 62.7614 119.89C63.5186 119.205 64.0187 118.282 64.1784 117.274C64.3382 116.265 64.148 115.232 63.6394 114.347ZM61.0226 116.122C61.028 116.223 61.0312 116.175 61.0226 116.122V116.122ZM60.7566 115.517C60.7463 115.505 60.7476 115.507 60.7566 115.517V115.517ZM59.5842 115.989C59.5669 115.96 59.5685 115.964 59.5842 115.989V115.989ZM59.8621 116.224C59.9021 116.242 59.9282 116.247 59.8621 116.224V116.224ZM59.9861 116.283L60.0136 116.271C60.0069 116.271 60.0002 116.27 59.9942 116.267L59.995 116.267L60.0165 116.269L60.0206 116.268L60.0081 116.265C60.0189 116.264 60.0198 116.266 60.0206 116.268C60.1449 116.211 60.061 116.238 59.9889 116.26L59.9841 116.259C59.9391 116.236 59.8908 116.221 59.8409 116.213C59.8363 116.211 59.8308 116.209 59.827 116.206C59.787 116.178 59.5848 116.02 59.7723 116.185C59.7315 116.149 59.6912 116.114 59.6528 116.075C59.6302 116.052 59.6096 116.026 59.5915 115.999C59.5669 115.957 59.543 115.915 59.5199 115.872L59.5164 115.848C59.5134 115.829 59.5111 115.821 59.5085 115.81C59.5097 115.798 59.5116 115.785 59.5135 115.772C59.5275 115.735 59.5364 115.696 59.54 115.656L59.5481 115.645C59.5781 115.604 59.6044 115.555 59.633 115.511C59.4816 115.741 59.6922 115.486 59.708 115.453C59.7107 115.448 59.706 115.451 59.7071 115.447C59.7133 115.444 59.7114 115.446 59.7188 115.442C59.7657 115.414 59.8102 115.383 59.8578 115.357C59.9146 115.325 60.1381 115.262 59.9063 115.328C59.959 115.313 60.0095 115.294 60.0627 115.28C60.0724 115.278 60.1504 115.267 60.1925 115.259C60.2294 115.258 60.2652 115.257 60.269 115.257C60.2863 115.257 60.3037 115.26 60.321 115.26C60.2826 115.265 60.4531 115.302 60.5037 115.31C60.511 115.316 60.5147 115.32 60.5247 115.327C60.5675 115.358 60.6196 115.386 60.6648 115.415C60.4627 115.284 60.6674 115.425 60.706 115.464C60.7291 115.487 60.7503 115.512 60.7721 115.536C60.792 115.559 60.81 115.584 60.8259 115.61C60.859 115.671 60.8942 115.732 60.929 115.792L60.9387 115.807C60.9385 115.809 60.9384 115.811 60.9384 115.813C60.9565 115.91 60.9833 116.005 61.0184 116.097C61.0201 116.105 61.0214 116.113 61.0224 116.121C61.0256 116.174 61.03 116.227 61.0301 116.28L61.0297 116.291C60.8688 116.207 60.6902 116.162 60.5088 116.161C60.3273 116.16 60.1482 116.202 59.9861 116.283Z" fill="#E6E6E6"/>
<path d="M60.0234 116.268C60.0277 116.27 60.0226 116.27 60.0226 116.27L60.0234 116.268Z" fill="#E6E6E6"/>
<path d="M60.0227 116.269L60.0194 116.27C60.0235 116.27 60.0227 116.269 60.0227 116.269Z" fill="#E6E6E6"/>
<path d="M60.0209 116.268L60.0229 116.269L60.0209 116.268Z" fill="#E6E6E6"/>
<path d="M104.592 96.7642L104.589 96.7656L104.595 96.7642H104.592Z" fill="#E6E6E6"/>
<path d="M108.214 94.8419C107.731 93.9865 106.961 93.3301 106.04 92.9891C105.119 92.6482 104.107 92.6448 103.184 92.9796C102.725 93.1471 102.304 93.405 101.946 93.7381C101.589 94.0711 101.302 94.4724 101.102 94.9184C101.062 95.0131 101.038 95.1128 101.006 95.2099C100.96 95.2831 100.906 95.3492 100.865 95.4258C100.432 96.2889 100.314 97.2761 100.53 98.2172C100.747 99.1583 101.284 99.9946 102.051 100.582C102.817 101.169 103.764 101.471 104.729 101.435C105.694 101.399 106.616 101.027 107.336 100.384C108.094 99.6997 108.594 98.7764 108.753 97.7681C108.913 96.7598 108.723 95.7271 108.214 94.8419ZM105.598 96.6166C105.603 96.7178 105.606 96.6694 105.598 96.6166V96.6166ZM105.332 96.0116C105.321 95.9999 105.323 96.0011 105.332 96.0116V96.0116ZM104.159 96.4832C104.142 96.455 104.143 96.459 104.159 96.4832V96.4832ZM104.437 96.7188C104.477 96.7366 104.503 96.7414 104.437 96.7188V96.7188ZM104.561 96.778L104.589 96.7654C104.582 96.766 104.575 96.7647 104.569 96.7615L104.57 96.7614L104.591 96.764L104.595 96.7622L104.583 96.7593C104.594 96.759 104.595 96.7605 104.595 96.7622C104.72 96.7053 104.636 96.7326 104.564 96.7549L104.559 96.7538C104.514 96.7309 104.466 96.7154 104.416 96.7078C104.411 96.7052 104.406 96.7034 104.402 96.7006C104.362 96.6721 104.16 96.5141 104.347 96.6798C104.306 96.6437 104.266 96.6083 104.228 96.5694C104.205 96.5461 104.185 96.5209 104.166 96.494C104.142 96.4518 104.118 96.4092 104.095 96.3663L104.091 96.3431C104.088 96.3238 104.086 96.3158 104.083 96.3043C104.085 96.2923 104.087 96.2795 104.088 96.267C104.102 96.2295 104.111 96.1902 104.115 96.1502L104.123 96.14C104.153 96.0981 104.179 96.0493 104.208 96.0058C104.057 96.2358 104.267 95.9804 104.283 95.948C104.286 95.9425 104.281 95.9455 104.282 95.9417C104.288 95.9383 104.286 95.9406 104.294 95.9363C104.341 95.9086 104.385 95.8778 104.433 95.8514C104.489 95.8199 104.713 95.7565 104.481 95.8228C104.534 95.8077 104.584 95.7887 104.638 95.7748C104.647 95.7723 104.725 95.7614 104.767 95.7538C104.804 95.7529 104.84 95.7517 104.844 95.7518C104.861 95.752 104.879 95.7541 104.896 95.7549C104.857 95.76 105.028 95.7969 105.079 95.8047C105.086 95.8104 105.09 95.8141 105.1 95.8214C105.142 95.8527 105.194 95.8805 105.24 95.9097C105.038 95.7791 105.242 95.9201 105.281 95.9587C105.304 95.9818 105.325 96.0064 105.347 96.0307C105.367 96.0538 105.385 96.0785 105.401 96.1045C105.434 96.1652 105.469 96.2267 105.504 96.2864L105.514 96.3017C105.513 96.3037 105.513 96.3057 105.513 96.3077C105.531 96.4045 105.558 96.4996 105.593 96.5917C105.595 96.5995 105.596 96.6074 105.597 96.6153C105.6 96.6684 105.605 96.7213 105.605 96.7746L105.605 96.7854C105.444 96.7015 105.265 96.6571 105.084 96.6558C104.902 96.6545 104.723 96.6964 104.561 96.778Z" fill="#E6E6E6"/>
<path d="M104.598 96.764L104.594 96.7645C104.598 96.7649 104.598 96.764 104.598 96.764Z" fill="#E6E6E6"/>
<path d="M104.596 96.7621L104.598 96.7631L104.596 96.7621Z" fill="#E6E6E6"/>
<path d="M104.598 96.7629C104.603 96.7642 104.598 96.7644 104.598 96.7644L104.598 96.7629Z" fill="#E6E6E6"/>
<path d="M147.778 106.515L147.78 106.516L147.778 106.515Z" fill="#E6E6E6"/>
<path d="M151.396 75.3365C150.913 74.4811 150.143 73.8247 149.222 73.4837C148.301 73.1428 147.289 73.1394 146.366 73.4742C145.907 73.6417 145.486 73.8996 145.128 74.2327C144.771 74.5657 144.484 74.967 144.284 75.413C144.244 75.5077 144.22 75.6074 144.188 75.7045C144.142 75.7777 144.088 75.8438 144.047 75.9204C143.614 76.7835 143.496 77.7707 143.712 78.7118C143.929 79.6529 144.466 80.4892 145.233 81.0765C145.999 81.6638 146.946 81.9653 147.911 81.9293C148.876 81.8932 149.798 81.5218 150.518 80.8789C151.276 80.1943 151.776 79.271 151.935 78.2627C152.095 77.2543 151.905 76.2217 151.396 75.3365ZM148.78 77.1112C148.785 77.2124 148.788 77.164 148.78 77.1112V77.1112ZM148.514 76.5062C148.503 76.4945 148.505 76.4957 148.514 76.5062V76.5062ZM147.341 76.9778C147.324 76.9496 147.325 76.9536 147.341 76.9778V76.9778ZM147.619 77.2134C147.659 77.2312 147.685 77.236 147.619 77.2134V77.2134ZM147.743 77.2726L147.771 77.26C147.764 77.2606 147.757 77.2593 147.751 77.2561L147.752 77.256L147.773 77.2586L147.777 77.2568L147.765 77.2539C147.776 77.2536 147.777 77.2551 147.777 77.2568C147.902 77.1999 147.818 77.2272 147.746 77.2495L147.741 77.2484C147.696 77.2255 147.648 77.21 147.598 77.2024C147.593 77.1998 147.588 77.198 147.584 77.1952C147.544 77.1667 147.342 77.0087 147.529 77.1744C147.488 77.1383 147.448 77.1029 147.41 77.064C147.387 77.0407 147.367 77.0155 147.348 76.9886C147.324 76.9464 147.3 76.9038 147.277 76.8609L147.273 76.8377C147.27 76.8184 147.268 76.8104 147.265 76.7989C147.267 76.7869 147.269 76.7741 147.27 76.7616C147.284 76.724 147.293 76.6848 147.297 76.6448L147.305 76.6346C147.335 76.5927 147.361 76.5439 147.39 76.5004C147.239 76.7304 147.449 76.475 147.465 76.4426C147.468 76.4371 147.463 76.4401 147.464 76.4363C147.47 76.4329 147.468 76.4352 147.476 76.4309C147.523 76.4032 147.567 76.3724 147.615 76.346C147.672 76.3145 147.895 76.2511 147.663 76.3174C147.716 76.3023 147.766 76.2833 147.82 76.2694C147.829 76.2669 147.907 76.256 147.949 76.2484C147.986 76.2475 148.022 76.2463 148.026 76.2464C148.043 76.2466 148.061 76.2487 148.078 76.2495C148.039 76.2546 148.21 76.2915 148.261 76.2993C148.268 76.305 148.272 76.3087 148.282 76.316C148.324 76.3473 148.376 76.3751 148.422 76.4043C148.22 76.2737 148.424 76.4147 148.463 76.4533C148.486 76.4764 148.507 76.501 148.529 76.5253C148.549 76.5484 148.567 76.5731 148.583 76.5991C148.616 76.6598 148.651 76.7213 148.686 76.781L148.696 76.7963C148.695 76.7983 148.695 76.8003 148.695 76.8023C148.713 76.8991 148.74 76.9942 148.775 77.0863C148.777 77.0941 148.778 77.102 148.779 77.1099C148.782 77.163 148.787 77.2159 148.787 77.2692L148.787 77.28C148.626 77.1961 148.447 77.1517 148.266 77.1504C148.084 77.1491 147.905 77.191 147.743 77.2726Z" fill="#E6E6E6"/>
<path d="M147.774 106.517L147.771 106.518L147.776 106.517H147.774Z" fill="#E6E6E6"/>
<path d="M147.78 106.517L147.776 106.517C147.78 106.518 147.78 106.517 147.78 106.517Z" fill="#E6E6E6"/>
<path d="M147.78 106.516C147.785 106.517 147.779 106.517 147.779 106.517L147.78 106.516Z" fill="#E6E6E6"/>
<path d="M195.275 128.976C194.792 128.121 194.021 127.465 193.1 127.124C192.179 126.783 191.167 126.779 190.244 127.114C189.785 127.282 189.364 127.54 189.007 127.873C188.649 128.206 188.362 128.607 188.162 129.053C188.122 129.148 188.099 129.247 188.066 129.344C188.021 129.418 187.966 129.484 187.926 129.56C187.493 130.423 187.374 131.411 187.591 132.352C187.807 133.293 188.345 134.129 189.111 134.716C189.877 135.304 190.825 135.605 191.789 135.569C192.754 135.533 193.676 135.162 194.397 134.519C195.154 133.834 195.654 132.911 195.814 131.903C195.974 130.894 195.783 129.862 195.275 128.976ZM192.658 130.751C192.663 130.852 192.667 130.804 192.658 130.751V130.751ZM192.392 130.146C192.382 130.134 192.383 130.136 192.392 130.146V130.146ZM191.22 130.618C191.202 130.589 191.204 130.593 191.22 130.618V130.618ZM191.497 130.853C191.537 130.871 191.564 130.876 191.497 130.853V130.853ZM191.622 130.912L191.649 130.9C191.642 130.9 191.635 130.899 191.629 130.896L191.63 130.896L191.652 130.899L191.656 130.897L191.643 130.894C191.654 130.893 191.655 130.895 191.656 130.897C191.78 130.84 191.696 130.867 191.624 130.889L191.619 130.888C191.574 130.865 191.526 130.85 191.476 130.842C191.472 130.84 191.466 130.838 191.462 130.835C191.422 130.807 191.22 130.649 191.408 130.814C191.367 130.778 191.327 130.743 191.288 130.704C191.265 130.681 191.245 130.655 191.227 130.628C191.202 130.586 191.178 130.544 191.155 130.501L191.152 130.478C191.149 130.458 191.146 130.45 191.144 130.439C191.145 130.427 191.147 130.414 191.149 130.401C191.163 130.364 191.172 130.325 191.175 130.285L191.183 130.274C191.213 130.233 191.24 130.184 191.268 130.14C191.117 130.37 191.328 130.115 191.343 130.082C191.346 130.077 191.341 130.08 191.342 130.076C191.349 130.073 191.347 130.075 191.354 130.071C191.401 130.043 191.446 130.012 191.493 129.986C191.55 129.954 191.773 129.891 191.542 129.957C191.594 129.942 191.645 129.923 191.698 129.909C191.708 129.907 191.786 129.896 191.828 129.888C191.865 129.887 191.901 129.886 191.904 129.886C191.922 129.886 191.939 129.889 191.956 129.889C191.918 129.895 192.088 129.931 192.139 129.939C192.146 129.945 192.15 129.949 192.16 129.956C192.203 129.987 192.255 130.015 192.3 130.044C192.098 129.914 192.303 130.055 192.341 130.093C192.364 130.116 192.386 130.141 192.407 130.165C192.427 130.188 192.445 130.213 192.461 130.239C192.494 130.3 192.53 130.361 192.564 130.421L192.574 130.436C192.574 130.438 192.574 130.44 192.574 130.442C192.592 130.539 192.619 130.634 192.654 130.726C192.655 130.734 192.657 130.742 192.658 130.75C192.661 130.803 192.665 130.856 192.665 130.909L192.665 130.92C192.504 130.836 192.326 130.792 192.144 130.79C191.963 130.789 191.784 130.831 191.622 130.912Z" fill="#E6E6E6"/>
<path d="M191.652 84.9217L191.649 84.9231L191.655 84.9217H191.652Z" fill="#E6E6E6"/>
<path d="M191.658 84.9214L191.655 84.9219C191.659 84.9223 191.658 84.9214 191.658 84.9214Z" fill="#E6E6E6"/>
<path d="M191.659 84.9203C191.663 84.9217 191.658 84.9218 191.658 84.9218L191.659 84.9203Z" fill="#E6E6E6"/>
<path d="M191.656 84.9196L191.658 84.9206L191.656 84.9196Z" fill="#E6E6E6"/>
<path d="M236.367 96.9317C235.884 96.0764 235.114 95.4199 234.193 95.079C233.272 94.738 232.26 94.7346 231.337 95.0694C230.878 95.237 230.457 95.4949 230.099 95.8279C229.742 96.1609 229.455 96.5623 229.255 97.0082C229.215 97.103 229.191 97.2027 229.159 97.2998C229.113 97.373 229.059 97.4391 229.018 97.5157C228.585 98.3788 228.467 99.3659 228.683 100.307C228.899 101.248 229.437 102.084 230.204 102.672C230.97 103.259 231.917 103.561 232.882 103.525C233.847 103.488 234.769 103.117 235.489 102.474C236.247 101.79 236.747 100.866 236.906 99.858C237.066 98.8496 236.876 97.817 236.367 96.9317ZM233.75 98.7065C233.756 98.8077 233.759 98.7592 233.75 98.7065V98.7065ZM233.484 98.1015C233.474 98.0897 233.476 98.091 233.484 98.1015V98.1015ZM232.312 98.573C232.295 98.5448 232.296 98.5489 232.312 98.573V98.573ZM232.59 98.8087C232.63 98.8265 232.656 98.8312 232.59 98.8087V98.8087ZM232.714 98.8678L232.742 98.8552C232.735 98.8559 232.728 98.8545 232.722 98.8514L232.723 98.8512L232.744 98.8539L232.748 98.8521L232.736 98.8492C232.747 98.8488 232.748 98.8504 232.748 98.8521C232.873 98.7952 232.789 98.8224 232.717 98.8448L232.712 98.8436C232.667 98.8208 232.619 98.8053 232.569 98.7977C232.564 98.7951 232.559 98.7932 232.555 98.7905C232.515 98.762 232.313 98.604 232.5 98.7696C232.459 98.7336 232.419 98.6982 232.381 98.6592C232.358 98.636 232.338 98.6108 232.319 98.5839C232.295 98.5417 232.271 98.4991 232.248 98.4561L232.244 98.433C232.241 98.4137 232.239 98.4057 232.236 98.3941C232.238 98.3822 232.24 98.3694 232.241 98.3569C232.255 98.3193 232.264 98.28 232.268 98.2401L232.276 98.2299C232.306 98.188 232.332 98.1392 232.361 98.0956C232.209 98.3256 232.42 98.0702 232.436 98.0379C232.439 98.0324 232.434 98.0354 232.435 98.0315C232.441 98.0281 232.439 98.0305 232.447 98.0261C232.494 97.9985 232.538 97.9677 232.586 97.9413C232.642 97.9098 232.866 97.8463 232.634 97.9126C232.687 97.8976 232.737 97.8786 232.791 97.8647C232.8 97.8622 232.878 97.8512 232.92 97.8437C232.957 97.8427 232.993 97.8416 232.997 97.8417C233.014 97.8419 233.032 97.844 233.049 97.8448C233.01 97.8499 233.181 97.8868 233.232 97.8946C233.239 97.9003 233.243 97.904 233.253 97.9113C233.295 97.9426 233.347 97.9704 233.393 97.9996C233.191 97.869 233.395 98.0099 233.434 98.0486C233.457 98.0716 233.478 98.0963 233.5 98.1205C233.52 98.1437 233.538 98.1683 233.554 98.1944C233.587 98.2551 233.622 98.3165 233.657 98.3763L233.667 98.3916C233.666 98.3936 233.666 98.3955 233.666 98.3975C233.684 98.4944 233.711 98.5895 233.746 98.6816C233.748 98.6894 233.749 98.6973 233.75 98.7052C233.753 98.7582 233.758 98.8111 233.758 98.8645L233.758 98.8753C233.597 98.7914 233.418 98.747 233.237 98.7457C233.055 98.7444 232.876 98.7863 232.714 98.8678Z" fill="#E6E6E6"/>
<path d="M232.745 98.8541L232.742 98.8555L232.747 98.8541H232.745Z" fill="#E6E6E6"/>
<path d="M232.749 98.852L232.751 98.853L232.749 98.852Z" fill="#E6E6E6"/>
<path d="M232.751 98.8528C232.756 98.8541 232.75 98.8543 232.75 98.8543L232.751 98.8528Z" fill="#E6E6E6"/>
<path d="M232.751 98.8538L232.747 98.8543C232.751 98.8548 232.751 98.8538 232.751 98.8538Z" fill="#E6E6E6"/>
<path d="M221.484 130.779L189.1 132.579C188.917 132.589 188.738 132.529 188.598 132.411C188.459 132.293 188.37 132.125 188.35 131.944C188.33 131.762 188.381 131.579 188.492 131.434C188.603 131.288 188.765 131.191 188.945 131.161L222.045 125.774L221.484 130.779Z" fill="#3F3D56"/>
<path d="M262.64 202.891L274.843 182.355L283.863 186.616C283.863 186.616 268.321 206.032 267.826 206.591C268.038 207.535 267.958 208.521 267.598 209.418C267.238 210.316 266.613 211.083 265.808 211.618C265.002 212.153 264.053 212.431 263.086 212.414C262.119 212.398 261.18 212.089 260.392 211.527C259.605 210.965 259.007 210.178 258.677 209.268C258.347 208.359 258.301 207.371 258.544 206.435C258.788 205.499 259.31 204.659 260.041 204.026C260.772 203.393 261.679 202.997 262.64 202.891Z" fill="#FFB6B6"/>
<path d="M267.716 155.189L287.487 165.506C288.723 166.397 289.759 167.535 290.53 168.849C291.301 170.163 291.789 171.623 291.963 173.136C292.138 174.649 291.994 176.182 291.543 177.636C291.091 179.091 290.341 180.435 289.34 181.583L275.71 197.222L269.772 189.174L274.349 179.603L265.487 177.266L267.716 155.189Z" fill="#FF4800"/>
<path d="M211.373 131.115L209.146 154.899L199.17 154.916C199.17 154.916 204.894 130.711 205.102 129.994C204.506 129.233 204.155 128.308 204.096 127.342C204.037 126.377 204.272 125.416 204.771 124.587C205.27 123.759 206.008 123.101 206.889 122.701C207.769 122.301 208.75 122.178 209.702 122.348C210.654 122.518 211.532 122.974 212.22 123.654C212.908 124.334 213.373 125.206 213.554 126.156C213.735 127.107 213.624 128.089 213.234 128.975C212.844 129.86 212.195 130.606 211.373 131.115Z" fill="#FFB6B6"/>
<path d="M231.229 179.754L208.27 175.543C198.601 174.38 194.634 168.017 196.378 161.811L201.992 141.839L210.806 146.565L210.772 157.174L223.109 155.487L231.229 179.754Z" fill="#FF4800"/>
<path d="M221.831 344.125H215.518L212.515 319.77H221.832L221.831 344.125Z" fill="#FFB6B6"/>
<path d="M222.053 350.713L202.64 350.712V350.467C202.64 348.462 203.436 346.54 204.853 345.123C206.27 343.705 208.192 342.909 210.196 342.909L213.743 340.218L220.359 342.909L222.054 342.909L222.053 350.713Z" fill="#2F2E41"/>
<path d="M266.5 344.125H272.813L275.816 319.77H266.498L266.5 344.125Z" fill="#FFB6B6"/>
<path d="M266.277 350.713L285.691 350.712V350.467C285.69 348.462 284.894 346.54 283.477 345.123C282.06 343.705 280.138 342.909 278.134 342.909L274.588 340.218L267.972 342.909L266.277 342.909L266.277 350.713Z" fill="#2F2E41"/>
<path d="M212.237 301.873C212.33 300.483 213.071 292.797 213.071 292.797L214.847 276.498L217.977 233.292L220.766 221.936L234.574 227.316L245.779 221.944L259.096 226.202L269.466 230.091C269.466 230.091 269.484 231.756 269.564 233.767C269.67 236.4 269.857 239.628 270.3 240.467C271.042 241.95 270.855 249.911 270.855 249.911C270.855 249.911 271.592 266.108 272.52 267.884C273.448 269.66 273.634 273.359 273.355 274.1C273.075 274.842 274.282 294.293 274.282 294.293C274.282 294.293 277.381 328.716 275.437 333.906C273.493 339.096 266.145 335.697 266.145 335.697C266.145 335.697 266.501 334.311 264.37 333.659C262.239 333.006 255.749 284.197 255.749 284.197C255.749 284.197 254.542 274.189 253.432 271.321C252.322 268.453 251.301 260.394 251.301 260.394C251.301 260.394 244.447 247.056 244.358 244.09C244.358 244.09 243.462 241.315 242.614 244.37C241.766 247.425 239.267 254.742 239.267 254.742L236.83 263.728L233.962 277.155L232.106 288.459C232.106 288.459 229.327 303.462 228.883 304.11C228.44 304.759 228.883 318.465 228.883 318.465C228.883 318.465 226.735 330.138 223.699 332.176C220.662 334.213 212.618 332.208 212.618 332.208C212.618 332.208 212.144 303.262 212.237 301.873Z" fill="#2F2E41"/>
<path d="M222.559 185.394L220.795 208.255L218.144 210.999C217.905 211.247 217.718 211.54 217.595 211.861C217.472 212.182 217.415 212.525 217.428 212.869C217.44 213.213 217.522 213.551 217.668 213.862C217.814 214.173 218.022 214.452 218.278 214.682L216.817 217.187L216.3 225.079C216.153 225.694 216.143 226.333 216.271 226.951C216.399 227.57 216.662 228.152 217.041 228.657C217.42 229.162 217.906 229.577 218.464 229.873C219.022 230.168 219.639 230.337 220.27 230.367L265.981 232.515C266.608 232.544 267.235 232.435 267.815 232.196C268.396 231.957 268.917 231.594 269.342 231.131C269.766 230.668 270.084 230.118 270.273 229.519C270.462 228.92 270.517 228.287 270.434 227.664L266.547 198.397V196.208L264.807 191.982L265.702 177.824L267.782 155.352L255.689 152.227L249.133 147.715L237.742 147.897L230.83 153.574L221.615 155.018L214.645 156.404L213.757 158.333L215.533 157.947L221.969 183.055L222.559 185.394Z" fill="#FF4800"/>
<path d="M243.183 144.652C250.593 144.652 256.601 138.643 256.601 131.231C256.601 123.819 250.593 117.81 243.183 117.81C235.772 117.81 229.764 123.819 229.764 131.231C229.764 138.643 235.772 144.652 243.183 144.652Z" fill="#FFB6B6"/>
<path d="M239.947 143.786L249.642 143.292C250.884 143.228 252.24 143.118 253.144 142.263C253.63 141.735 254.004 141.114 254.243 140.437C255.139 138.355 256.035 136.273 256.909 134.181C258.117 131.287 259.303 128.232 258.995 125.111C258.923 123.686 258.325 122.338 257.318 121.328C256.803 120.841 256.142 120.538 255.438 120.467C254.734 120.395 254.025 120.559 253.424 120.933C253.275 119.946 252.903 119.006 252.337 118.184C251.771 117.362 251.025 116.679 250.156 116.187C248.402 115.218 246.398 114.793 244.402 114.967C241.504 115.154 238.738 116.244 236.492 118.085C235.861 118.668 235.186 119.203 234.474 119.684C234.117 119.924 233.714 120.088 233.29 120.166C232.867 120.244 232.432 120.236 232.012 120.14C231.596 120.029 231.234 119.771 230.994 119.414C230.753 119.057 230.65 118.624 230.704 118.197C230.021 118.708 229.553 119.454 229.39 120.292C229.228 121.129 229.384 121.996 229.826 122.725C229.323 122.936 228.774 123.013 228.232 122.949C227.69 122.885 227.174 122.682 226.734 122.359C226.262 122.593 225.845 122.923 225.508 123.328C225.171 123.733 224.923 124.203 224.779 124.71C224.634 125.216 224.597 125.747 224.67 126.268C224.743 126.79 224.923 127.291 225.201 127.738C225.478 128.186 225.845 128.57 226.28 128.868C226.715 129.165 227.206 129.368 227.724 129.464C228.241 129.561 228.773 129.548 229.286 129.426C229.798 129.305 230.279 129.078 230.699 128.76C231.287 129.584 231.068 130.704 230.991 131.714C230.915 132.724 231.186 133.979 232.159 134.258C233.475 134.636 234.541 132.863 235.91 132.882C236.247 132.91 236.573 133.02 236.858 133.204C237.143 133.387 237.378 133.638 237.542 133.935C237.865 134.53 238.086 135.175 238.196 135.843L239.948 143.731" fill="#2F2E41"/>
<path d="M617.96 264.463C617.96 262.385 617.262 260.698 616.405 260.694H382.843C381.983 260.698 381.289 262.385 381.285 264.463V350.015C381.285 350.208 381.213 350.394 381.084 350.537C380.954 350.68 380.776 350.769 380.584 350.788C379.957 350.848 379.33 350.904 378.703 350.956C378.688 350.956 378.672 350.96 378.657 350.96C378.315 350.991 377.974 351.014 377.633 351.041H377.629C377.454 350.717 377.28 350.389 377.109 350.059C377.051 349.948 377.021 349.824 377.021 349.699V259.574C377.021 259 377.044 258.422 377.083 257.852C377.138 257.07 377.235 256.29 377.373 255.518C378.029 251.916 379.509 249.477 381.192 249.469H618.053C618.298 249.471 618.541 249.522 618.766 249.621C619.097 249.767 619.396 249.976 619.646 250.237C619.986 250.591 620.277 250.988 620.511 251.42C621.476 253.344 622.032 255.447 622.143 257.596C622.143 257.62 622.147 257.643 622.147 257.666C622.201 258.294 622.228 258.934 622.224 259.574L622.278 267.883L622.313 272.838L622.418 288.387L622.457 293.908L622.627 350.595C622.627 350.801 622.546 350.998 622.4 351.144C622.255 351.289 622.058 351.371 621.852 351.371H618.735C618.53 351.371 618.332 351.289 618.187 351.144C618.042 350.998 617.96 350.801 617.96 350.595V264.463Z" fill="#E6E6E6"/>
<path d="M554.494 210.589H529.327C528.971 210.589 528.63 210.731 528.378 210.983C528.127 211.235 527.986 211.577 527.986 211.933V251.697H555.838V211.933C555.838 211.757 555.803 211.582 555.736 211.419C555.668 211.255 555.569 211.107 555.444 210.982C555.319 210.857 555.171 210.758 555.008 210.691C554.845 210.623 554.67 210.589 554.494 210.589ZM541.995 233.182C541.208 233.178 540.454 232.864 539.898 232.307C539.341 231.751 539.027 230.997 539.023 230.21V225.623C539.023 224.835 539.336 224.079 539.893 223.521C540.451 222.964 541.207 222.651 541.995 222.651C542.783 222.651 543.539 222.964 544.096 223.521C544.653 224.079 544.967 224.835 544.967 225.623V230.21C544.963 230.997 544.649 231.751 544.092 232.307C543.536 232.864 542.782 233.178 541.995 233.182Z" fill="#CCCCCC"/>
<path d="M527.9 250.425V254.262C527.9 254.46 527.979 254.651 528.12 254.791C528.26 254.932 528.451 255.011 528.65 255.012H555.174C555.373 255.011 555.563 254.931 555.703 254.791C555.844 254.65 555.923 254.46 555.924 254.262V250.425H527.9Z" fill="#3F3D56"/>
<path d="M596.167 148.533H488.589C487.665 148.534 486.779 148.902 486.126 149.556C485.472 150.209 485.104 151.095 485.103 152.02V224.628C485.104 225.553 485.471 226.439 486.125 227.093C486.779 227.747 487.665 228.115 488.589 228.116H596.167C597.092 228.115 597.978 227.747 598.632 227.093C599.285 226.439 599.653 225.553 599.654 224.628V152.02C599.653 151.095 599.285 150.209 598.631 149.556C597.978 148.902 597.092 148.534 596.167 148.533Z" fill="#E6E6E6"/>
<path d="M595.269 151.051H489.488C488.993 151.053 488.519 151.25 488.17 151.6C487.82 151.951 487.624 152.425 487.624 152.92V223.729C487.625 224.223 487.821 224.697 488.171 225.047C488.52 225.397 488.994 225.593 489.488 225.594H595.269C595.764 225.593 596.237 225.397 596.587 225.047C596.936 224.697 597.133 224.223 597.134 223.729V152.92C597.134 152.425 596.938 151.951 596.588 151.6C596.239 151.25 595.764 151.053 595.269 151.051Z" fill="white"/>
<path d="M574.665 256.347H511.731C511.559 256.347 511.389 256.308 511.233 256.234C511.078 256.16 510.941 256.052 510.832 255.918C510.724 255.784 510.646 255.628 510.606 255.461C510.565 255.293 510.563 255.119 510.598 254.95L511.575 250.311C511.63 250.052 511.773 249.819 511.979 249.652C512.185 249.485 512.442 249.393 512.707 249.392H573.689C573.954 249.393 574.211 249.485 574.417 249.652C574.623 249.819 574.766 250.052 574.821 250.311L575.798 254.95C575.833 255.119 575.831 255.293 575.79 255.461C575.75 255.628 575.673 255.784 575.564 255.918C575.456 256.052 575.319 256.16 575.163 256.234C575.007 256.308 574.837 256.347 574.665 256.347Z" fill="#CCCCCC"/>
<path d="M514.753 250.227H513.494C513.307 250.227 513.154 250.379 513.154 250.567V251.05C513.154 251.238 513.307 251.39 513.494 251.39H514.753C514.94 251.39 515.093 251.238 515.093 251.05V250.567C515.093 250.379 514.94 250.227 514.753 250.227Z" fill="#E6E6E6"/>
<path d="M518.629 250.227H517.371C517.183 250.227 517.031 250.379 517.031 250.567V251.05C517.031 251.238 517.183 251.39 517.371 251.39H518.629C518.817 251.39 518.969 251.238 518.969 251.05V250.567C518.969 250.379 518.817 250.227 518.629 250.227Z" fill="#E6E6E6"/>
<path d="M522.506 250.227H521.248C521.06 250.227 520.908 250.379 520.908 250.567V251.05C520.908 251.238 521.06 251.39 521.248 251.39H522.506C522.694 251.39 522.846 251.238 522.846 251.05V250.567C522.846 250.379 522.694 250.227 522.506 250.227Z" fill="#E6E6E6"/>
<path d="M526.382 250.227H525.124C524.936 250.227 524.784 250.379 524.784 250.567V251.05C524.784 251.238 524.936 251.39 525.124 251.39H526.382C526.57 251.39 526.722 251.238 526.722 251.05V250.567C526.722 250.379 526.57 250.227 526.382 250.227Z" fill="#E6E6E6"/>
<path d="M530.259 250.227H529.001C528.813 250.227 528.661 250.379 528.661 250.567V251.05C528.661 251.238 528.813 251.39 529.001 251.39H530.259C530.447 251.39 530.599 251.238 530.599 251.05V250.567C530.599 250.379 530.447 250.227 530.259 250.227Z" fill="#E6E6E6"/>
<path d="M534.136 250.227H532.877C532.69 250.227 532.537 250.379 532.537 250.567V251.05C532.537 251.238 532.69 251.39 532.877 251.39H534.136C534.323 251.39 534.476 251.238 534.476 251.05V250.567C534.476 250.379 534.323 250.227 534.136 250.227Z" fill="#E6E6E6"/>
<path d="M538.012 250.227H536.754C536.566 250.227 536.414 250.379 536.414 250.567V251.05C536.414 251.238 536.566 251.39 536.754 251.39H538.012C538.2 251.39 538.352 251.238 538.352 251.05V250.567C538.352 250.379 538.2 250.227 538.012 250.227Z" fill="#E6E6E6"/>
<path d="M541.889 250.227H540.631C540.443 250.227 540.291 250.379 540.291 250.567V251.05C540.291 251.238 540.443 251.39 540.631 251.39H541.889C542.077 251.39 542.229 251.238 542.229 251.05V250.567C542.229 250.379 542.077 250.227 541.889 250.227Z" fill="#E6E6E6"/>
<path d="M545.766 250.227H544.507C544.319 250.227 544.167 250.379 544.167 250.567V251.05C544.167 251.238 544.319 251.39 544.507 251.39H545.766C545.953 251.39 546.106 251.238 546.106 251.05V250.567C546.106 250.379 545.953 250.227 545.766 250.227Z" fill="#E6E6E6"/>
<path d="M549.642 250.227H548.384C548.196 250.227 548.044 250.379 548.044 250.567V251.05C548.044 251.238 548.196 251.39 548.384 251.39H549.642C549.83 251.39 549.982 251.238 549.982 251.05V250.567C549.982 250.379 549.83 250.227 549.642 250.227Z" fill="#E6E6E6"/>
<path d="M553.519 250.227H552.26C552.073 250.227 551.92 250.379 551.92 250.567V251.05C551.92 251.238 552.073 251.39 552.26 251.39H553.519C553.706 251.39 553.859 251.238 553.859 251.05V250.567C553.859 250.379 553.706 250.227 553.519 250.227Z" fill="#E6E6E6"/>
<path d="M557.395 250.227H556.137C555.949 250.227 555.797 250.379 555.797 250.567V251.05C555.797 251.238 555.949 251.39 556.137 251.39H557.395C557.583 251.39 557.735 251.238 557.735 251.05V250.567C557.735 250.379 557.583 250.227 557.395 250.227Z" fill="#E6E6E6"/>
<path d="M561.272 250.227H560.014C559.826 250.227 559.674 250.379 559.674 250.567V251.05C559.674 251.238 559.826 251.39 560.014 251.39H561.272C561.46 251.39 561.612 251.238 561.612 251.05V250.567C561.612 250.379 561.46 250.227 561.272 250.227Z" fill="#E6E6E6"/>
<path d="M565.149 250.227H563.89C563.703 250.227 563.55 250.379 563.55 250.567V251.05C563.55 251.238 563.703 251.39 563.89 251.39H565.149C565.336 251.39 565.489 251.238 565.489 251.05V250.567C565.489 250.379 565.336 250.227 565.149 250.227Z" fill="#E6E6E6"/>
<path d="M569.025 250.227H567.767C567.579 250.227 567.427 250.379 567.427 250.567V251.05C567.427 251.238 567.579 251.39 567.767 251.39H569.025C569.213 251.39 569.365 251.238 569.365 251.05V250.567C569.365 250.379 569.213 250.227 569.025 250.227Z" fill="#E6E6E6"/>
<path d="M572.902 250.227H571.644C571.456 250.227 571.303 250.379 571.303 250.567V251.05C571.303 251.238 571.456 251.39 571.644 251.39H572.902C573.09 251.39 573.242 251.238 573.242 251.05V250.567C573.242 250.379 573.09 250.227 572.902 250.227Z" fill="#E6E6E6"/>
<path d="M514.707 252.166H513.449C513.261 252.166 513.109 252.318 513.109 252.506V252.989C513.109 253.177 513.261 253.329 513.449 253.329H514.707C514.895 253.329 515.047 253.177 515.047 252.989V252.506C515.047 252.318 514.895 252.166 514.707 252.166Z" fill="#E6E6E6"/>
<path d="M518.583 252.166H517.325C517.137 252.166 516.985 252.318 516.985 252.506V252.989C516.985 253.177 517.137 253.329 517.325 253.329H518.583C518.771 253.329 518.923 253.177 518.923 252.989V252.506C518.923 252.318 518.771 252.166 518.583 252.166Z" fill="#E6E6E6"/>
<path d="M522.46 252.166H521.202C521.014 252.166 520.862 252.318 520.862 252.506V252.989C520.862 253.177 521.014 253.329 521.202 253.329H522.46C522.648 253.329 522.8 253.177 522.8 252.989V252.506C522.8 252.318 522.648 252.166 522.46 252.166Z" fill="#E6E6E6"/>
<path d="M526.337 252.166H525.078C524.891 252.166 524.738 252.318 524.738 252.506V252.989C524.738 253.177 524.891 253.329 525.078 253.329H526.337C526.524 253.329 526.677 253.177 526.677 252.989V252.506C526.677 252.318 526.524 252.166 526.337 252.166Z" fill="#E6E6E6"/>
<path d="M530.213 252.166H528.955C528.767 252.166 528.615 252.318 528.615 252.506V252.989C528.615 253.177 528.767 253.329 528.955 253.329H530.213C530.401 253.329 530.553 253.177 530.553 252.989V252.506C530.553 252.318 530.401 252.166 530.213 252.166Z" fill="#E6E6E6"/>
<path d="M534.09 252.166H532.832C532.644 252.166 532.492 252.318 532.492 252.506V252.989C532.492 253.177 532.644 253.329 532.832 253.329H534.09C534.278 253.329 534.43 253.177 534.43 252.989V252.506C534.43 252.318 534.278 252.166 534.09 252.166Z" fill="#E6E6E6"/>
<path d="M537.966 252.166H536.708C536.52 252.166 536.368 252.318 536.368 252.506V252.989C536.368 253.177 536.52 253.329 536.708 253.329H537.966C538.154 253.329 538.306 253.177 538.306 252.989V252.506C538.306 252.318 538.154 252.166 537.966 252.166Z" fill="#E6E6E6"/>
<path d="M541.843 252.166H540.585C540.397 252.166 540.245 252.318 540.245 252.506V252.989C540.245 253.177 540.397 253.329 540.585 253.329H541.843C542.031 253.329 542.183 253.177 542.183 252.989V252.506C542.183 252.318 542.031 252.166 541.843 252.166Z" fill="#E6E6E6"/>
<path d="M545.72 252.166H544.461C544.274 252.166 544.121 252.318 544.121 252.506V252.989C544.121 253.177 544.274 253.329 544.461 253.329H545.72C545.907 253.329 546.06 253.177 546.06 252.989V252.506C546.06 252.318 545.907 252.166 545.72 252.166Z" fill="#E6E6E6"/>
<path d="M549.596 252.166H548.338C548.15 252.166 547.998 252.318 547.998 252.506V252.989C547.998 253.177 548.15 253.329 548.338 253.329H549.596C549.784 253.329 549.936 253.177 549.936 252.989V252.506C549.936 252.318 549.784 252.166 549.596 252.166Z" fill="#E6E6E6"/>
<path d="M553.473 252.166H552.215C552.027 252.166 551.875 252.318 551.875 252.506V252.989C551.875 253.177 552.027 253.329 552.215 253.329H553.473C553.661 253.329 553.813 253.177 553.813 252.989V252.506C553.813 252.318 553.661 252.166 553.473 252.166Z" fill="#E6E6E6"/>
<path d="M557.35 252.166H556.091C555.903 252.166 555.751 252.318 555.751 252.506V252.989C555.751 253.177 555.903 253.329 556.091 253.329H557.35C557.537 253.329 557.69 253.177 557.69 252.989V252.506C557.69 252.318 557.537 252.166 557.35 252.166Z" fill="#E6E6E6"/>
<path d="M561.226 252.166H559.968C559.78 252.166 559.628 252.318 559.628 252.506V252.989C559.628 253.177 559.78 253.329 559.968 253.329H561.226C561.414 253.329 561.566 253.177 561.566 252.989V252.506C561.566 252.318 561.414 252.166 561.226 252.166Z" fill="#E6E6E6"/>
<path d="M565.103 252.166H563.845C563.657 252.166 563.505 252.318 563.505 252.506V252.989C563.505 253.177 563.657 253.329 563.845 253.329H565.103C565.291 253.329 565.443 253.177 565.443 252.989V252.506C565.443 252.318 565.291 252.166 565.103 252.166Z" fill="#E6E6E6"/>
<path d="M568.979 252.166H567.721C567.533 252.166 567.381 252.318 567.381 252.506V252.989C567.381 253.177 567.533 253.329 567.721 253.329H568.979C569.167 253.329 569.319 253.177 569.319 252.989V252.506C569.319 252.318 569.167 252.166 568.979 252.166Z" fill="#E6E6E6"/>
<path d="M572.856 252.166H571.598C571.41 252.166 571.258 252.318 571.258 252.506V252.989C571.258 253.177 571.41 253.329 571.598 253.329H572.856C573.044 253.329 573.196 253.177 573.196 252.989V252.506C573.196 252.318 573.044 252.166 572.856 252.166Z" fill="#E6E6E6"/>
<path d="M546.883 254.492H532.056C531.869 254.492 531.716 254.645 531.716 254.832V255.315C531.716 255.503 531.869 255.655 532.056 255.655H546.883C547.071 255.655 547.223 255.503 547.223 255.315V254.832C547.223 254.645 547.071 254.492 546.883 254.492Z" fill="#E6E6E6"/>
<path d="M589.952 160.807H490.973C490.87 160.805 490.772 160.763 490.7 160.689C490.628 160.615 490.588 160.517 490.588 160.414C490.588 160.311 490.628 160.212 490.7 160.138C490.772 160.065 490.87 160.022 490.973 160.02H589.952C590.055 160.022 590.153 160.065 590.225 160.138C590.297 160.212 590.337 160.311 590.337 160.414C590.337 160.517 590.297 160.615 590.225 160.689C590.153 160.763 590.055 160.805 589.952 160.807Z" fill="#CACACA"/>
<path d="M497.711 158.01C498.985 158.01 500.017 156.954 500.017 155.651C500.017 154.349 498.985 153.293 497.711 153.293C496.437 153.293 495.404 154.349 495.404 155.651C495.404 156.954 496.437 158.01 497.711 158.01Z" fill="#CCCCCC"/>
<path d="M505.679 158.01C506.953 158.01 507.986 156.954 507.986 155.651C507.986 154.349 506.953 153.293 505.679 153.293C504.405 153.293 503.373 154.349 503.373 155.651C503.373 156.954 504.405 158.01 505.679 158.01Z" fill="#CCCCCC"/>
<path d="M513.648 158.01C514.922 158.01 515.955 156.954 515.955 155.651C515.955 154.349 514.922 153.293 513.648 153.293C512.374 153.293 511.341 154.349 511.341 155.651C511.341 156.954 512.374 158.01 513.648 158.01Z" fill="#CCCCCC"/>
<path d="M585.154 153.877H579.493C579.381 153.879 579.274 153.926 579.196 154.006C579.117 154.086 579.073 154.194 579.073 154.306C579.073 154.418 579.117 154.526 579.196 154.606C579.274 154.686 579.381 154.732 579.493 154.735H585.154C585.266 154.732 585.373 154.686 585.452 154.606C585.53 154.526 585.574 154.418 585.574 154.306C585.574 154.194 585.53 154.086 585.452 154.006C585.373 153.926 585.266 153.879 585.154 153.877Z" fill="#CCCCCC"/>
<path d="M585.154 155.486H579.494C579.381 155.489 579.275 155.535 579.196 155.615C579.117 155.695 579.073 155.803 579.073 155.915C579.073 156.027 579.117 156.135 579.196 156.215C579.275 156.295 579.381 156.342 579.494 156.344H585.154C585.266 156.342 585.373 156.295 585.452 156.215C585.53 156.135 585.574 156.027 585.574 155.915C585.574 155.803 585.53 155.695 585.452 155.615C585.373 155.535 585.266 155.489 585.154 155.486Z" fill="#CCCCCC"/>
<path d="M585.154 157.093H579.493C579.381 157.096 579.274 157.142 579.196 157.222C579.117 157.302 579.073 157.41 579.073 157.522C579.073 157.634 579.117 157.742 579.196 157.822C579.274 157.903 579.381 157.949 579.493 157.951H585.154C585.266 157.949 585.373 157.903 585.452 157.822C585.53 157.742 585.574 157.634 585.574 157.522C585.574 157.41 585.53 157.302 585.452 157.222C585.373 157.142 585.266 157.096 585.154 157.093Z" fill="#CCCCCC"/>
<path d="M548.454 182.256H536.086C535.157 182.256 534.404 183.009 534.404 183.939C534.404 184.868 535.157 185.621 536.086 185.621H548.454C549.383 185.621 550.136 184.868 550.136 183.939C550.136 183.009 549.383 182.256 548.454 182.256Z" fill="#FF4800"/>
<path d="M556.444 188.986H528.096C527.167 188.986 526.414 189.739 526.414 190.668C526.414 191.597 527.167 192.351 528.096 192.351H556.444C557.373 192.351 558.126 191.597 558.126 190.668C558.126 189.739 557.373 188.986 556.444 188.986Z" fill="#E6E6E6"/>
<path d="M556.444 195.715H528.096C527.167 195.715 526.414 196.469 526.414 197.398C526.414 198.327 527.167 199.08 528.096 199.08H556.444C557.373 199.08 558.126 198.327 558.126 197.398C558.126 196.469 557.373 195.715 556.444 195.715Z" fill="#E6E6E6"/>
<path d="M365.463 300.555L359.762 297.827L367.594 273.991L376.008 278.016L365.463 300.555Z" fill="#FFB6B6"/>
<path d="M403.688 296.712C403.273 296.972 402.858 297.227 402.439 297.483C401.606 297.994 400.764 298.497 399.922 298.991C399.499 299.238 399.072 299.485 398.649 299.728V299.741L398.624 299.745L398.616 299.749L397.971 299.908L397.045 297.462L396.618 296.335L396.015 294.739L394.909 291.82L389.088 276.447L398.138 274.214L398.478 275.6H398.482L398.649 276.287L401.811 289.114L402.456 291.736L402.477 291.815L402.867 293.382L403.202 294.739L403.574 296.256L403.688 296.712Z" fill="#FFB6B6"/>
<path d="M457.676 242.726C457.102 243.647 456.516 244.564 455.926 245.473C454.828 247.166 453.702 248.833 452.546 250.475C452.546 250.479 452.542 250.479 452.538 250.483C451.863 251.108 451.118 251.652 450.318 252.104C450.284 252.129 450.247 252.146 450.213 252.167C449.624 252.493 448.996 252.745 448.345 252.917C448.111 252.976 447.872 253.034 447.638 253.093C446.792 253.294 445.954 253.466 445.121 253.616C443.638 253.88 442.172 254.069 440.715 254.186C440.597 254.199 440.48 254.207 440.363 254.215C434.37 254.655 428.536 253.947 422.447 252.787C419.44 252.217 416.37 251.535 413.191 250.827C412.152 250.592 411.11 250.362 410.054 250.131C409.975 250.115 409.891 250.094 409.807 250.077C408.299 249.746 406.767 249.419 405.196 249.097C403.219 248.69 401.18 248.297 399.061 247.924L399.212 250.91C399.337 253.208 399.814 255.473 400.627 257.625C401.532 260.273 402.248 262.367 400.736 266.728L400.007 268.839C400.385 269.887 400.515 271.009 400.386 272.116C400.257 273.223 399.874 274.285 399.266 275.218L399.119 275.44L405.196 290.818L405.59 291.815H402.478L398.65 291.819H392.163L382.803 273.036L382.355 272.14V272.093L383.322 235.998C383.335 235.68 383.36 235.357 383.402 235.039C383.572 233.592 384.029 232.193 384.746 230.924C385.463 229.656 386.426 228.543 387.577 227.65C388.681 226.787 389.945 226.153 391.296 225.783C392.647 225.413 394.058 225.316 395.446 225.497L398.65 225.911L405.196 226.758L409.807 227.357L409.899 227.369L423.498 229.128L424.474 225.149L424.654 225.082L430.379 222.983L450.18 215.724L450.23 215.707L451.532 215.23L451.687 215.481C451.733 215.557 451.779 215.632 451.821 215.707C453.109 218.016 454.157 220.45 454.95 222.971C456.283 227.09 457.381 231.281 458.237 235.525C458.275 235.709 458.309 235.877 458.338 236.028L458.35 236.074C458.363 236.145 458.371 236.191 458.376 236.203C458.768 238.4 458.525 240.662 457.676 242.726Z" fill="#2F2E41"/>
<path d="M458.512 229.423C458.449 229.155 458.369 228.883 458.286 228.619C457.621 226.62 456.846 224.66 455.966 222.746C454.977 220.568 453.792 218.235 452.381 215.709C451.698 214.486 450.964 213.214 450.178 211.893C449.784 211.231 449.375 210.557 448.951 209.87C448.934 209.838 448.916 209.807 448.896 209.778L448.775 209.577L429.183 212.199L421.888 213.175L421.452 216.811L421.347 217.711C421.343 217.711 421.343 217.711 421.347 217.716L421.054 220.17V220.174L420.665 223.417L420.631 223.412L409.805 222.009L398.648 220.564L392.655 219.789C391.267 219.608 389.855 219.705 388.504 220.075C387.153 220.444 385.89 221.079 384.786 221.942C383.635 222.835 382.673 223.948 381.956 225.217C381.239 226.485 380.782 227.884 380.611 229.331C380.573 229.624 380.548 229.926 380.535 230.223L374.881 243.624C371.498 251.638 369.344 260.116 368.491 268.773L364.344 282.031L364.935 282.086L373.721 282.902L376.041 283.12L381.151 275.66C381.733 274.81 382.286 273.934 382.801 273.038C383.649 271.574 384.403 270.057 385.058 268.497L396.11 242.191C396.965 242.338 397.811 242.477 398.648 242.61C402.522 243.238 406.241 243.751 409.805 244.147C421.394 245.442 431.428 245.542 440.361 244.445C442.87 244.139 445.295 243.737 447.636 243.238C448.494 243.058 449.342 242.864 450.178 242.656C450.375 242.61 450.567 242.564 450.76 242.514C452.491 242.067 454.082 241.194 455.388 239.973C456.694 238.752 457.673 237.224 458.236 235.527C458.907 233.56 459.003 231.443 458.512 229.423Z" fill="#2F2E41"/>
<path d="M367.284 296.663L361.116 293.705L360.148 293.24L358.603 297.035L347.814 299.411C347.281 299.528 346.799 299.812 346.439 300.223C346.078 300.633 345.859 301.148 345.812 301.692C345.765 302.236 345.894 302.781 346.179 303.247C346.463 303.713 346.89 304.076 347.396 304.282L357.937 308.584L361.283 305.572L360.462 309.615L364.432 311.236L368.784 297.383L367.284 296.663Z" fill="#2F2E41"/>
<path d="M405.196 290.818L405.59 291.815H405.196V290.818Z" fill="#2F2E41"/>
<path d="M403.048 292.028L396.584 294.268L395.569 294.618L397.141 298.402L391.146 307.682C390.849 308.141 390.707 308.682 390.739 309.228C390.772 309.773 390.979 310.293 391.328 310.713C391.678 311.133 392.152 311.429 392.683 311.56C393.213 311.691 393.771 311.648 394.275 311.439L404.792 307.077L405.051 302.582L407.311 306.032L411.273 304.39L404.62 291.484L403.048 292.028Z" fill="#2F2E41"/>
<path d="M363.815 153.43C364.122 154.027 364.555 154.55 365.086 154.962C365.616 155.373 366.23 155.663 366.885 155.812C367.539 155.96 368.218 155.963 368.874 155.821C369.53 155.678 370.147 155.393 370.681 154.987L384.273 164.012L384.299 155.532L371.387 148.262C370.645 147.41 369.616 146.86 368.495 146.716C367.374 146.572 366.239 146.845 365.306 147.482C364.373 148.119 363.705 149.076 363.431 150.173C363.156 151.269 363.293 152.428 363.815 153.43Z" fill="#FFB6B6"/>
<path d="M373.969 157.35L380.311 150.134L406.133 165.466L440.362 162.33C442.054 162.176 443.759 162.395 445.357 162.973C446.954 163.552 448.405 164.475 449.606 165.677C450.807 166.879 451.728 168.331 452.305 169.93C452.882 171.528 453.099 173.234 452.943 174.926C452.657 177.982 451.17 180.8 448.809 182.761C446.449 184.722 443.407 185.666 440.351 185.387L401.8 181.818L373.969 157.35Z" fill="#CCCCCC"/>
<path d="M453.415 157.461L453.356 157.386C448.54 156.911 443.691 157.843 439.394 160.07C435.098 162.296 431.54 165.721 429.151 169.93L426.246 175.048C416.85 186.538 423.678 194.461 424.087 195.639L420.825 210.68L421.556 215.714L421.921 217.209L459.151 236.667C461.271 226.48 459.221 217.8 451.499 211.17L458.971 187.918C460.627 182.776 460.987 177.305 460.017 171.991C459.048 166.677 456.78 161.686 453.415 157.461Z" fill="#CCCCCC"/>
<path d="M423.813 270.423H411.871C411.214 270.422 410.579 270.185 410.083 269.754C409.587 269.323 409.264 268.728 409.171 268.077C408.434 262.65 408.434 257.148 409.171 251.721C409.263 251.078 409.58 250.489 410.066 250.059C410.552 249.63 411.176 249.387 411.825 249.376C415.582 247.691 419.628 247.691 423.854 249.376C424.247 249.381 424.635 249.472 424.989 249.643C425.344 249.814 425.656 250.061 425.906 250.365C426.165 250.682 426.351 251.053 426.45 251.451C426.548 251.849 426.557 252.264 426.475 252.665C425.516 257.44 425.516 262.358 426.475 267.133C426.557 267.535 426.548 267.949 426.45 268.347C426.351 268.745 426.165 269.116 425.906 269.433C425.652 269.743 425.333 269.993 424.971 270.164C424.609 270.335 424.213 270.424 423.813 270.423Z" fill="#FF4800"/>
<path d="M422.562 255.612H412.511C412.428 255.612 412.345 255.597 412.269 255.565C412.192 255.534 412.122 255.488 412.063 255.429C412.004 255.371 411.957 255.302 411.925 255.225C411.893 255.148 411.877 255.066 411.877 254.983C411.877 254.9 411.893 254.818 411.925 254.741C411.957 254.665 412.004 254.595 412.063 254.537C412.122 254.479 412.192 254.432 412.269 254.401C412.345 254.37 412.428 254.354 412.511 254.355H422.562C422.645 254.354 422.727 254.37 422.804 254.401C422.881 254.432 422.951 254.479 423.01 254.537C423.069 254.595 423.115 254.665 423.147 254.741C423.179 254.818 423.196 254.9 423.196 254.983C423.196 255.066 423.179 255.148 423.147 255.225C423.115 255.302 423.069 255.371 423.01 255.429C422.951 255.488 422.881 255.534 422.804 255.565C422.727 255.597 422.645 255.612 422.562 255.612Z" fill="white"/>
<path d="M422.562 260.638H412.511C412.428 260.639 412.345 260.623 412.269 260.592C412.192 260.561 412.122 260.514 412.063 260.456C412.004 260.398 411.957 260.328 411.925 260.252C411.893 260.175 411.877 260.093 411.877 260.01C411.877 259.927 411.893 259.845 411.925 259.768C411.957 259.691 412.004 259.622 412.063 259.564C412.122 259.505 412.192 259.459 412.269 259.428C412.345 259.396 412.428 259.381 412.511 259.381H422.562C422.645 259.381 422.727 259.396 422.804 259.428C422.881 259.459 422.951 259.505 423.01 259.564C423.069 259.622 423.115 259.691 423.147 259.768C423.179 259.845 423.196 259.927 423.196 260.01C423.196 260.093 423.179 260.175 423.147 260.252C423.115 260.328 423.069 260.398 423.01 260.456C422.951 260.514 422.881 260.561 422.804 260.592C422.727 260.623 422.645 260.639 422.562 260.638Z" fill="white"/>
<path d="M422.562 265.665H412.511C412.428 265.666 412.345 265.65 412.268 265.619C412.192 265.587 412.122 265.541 412.063 265.483C412.004 265.424 411.957 265.355 411.925 265.278C411.893 265.202 411.877 265.119 411.877 265.036C411.877 264.953 411.893 264.871 411.925 264.795C411.957 264.718 412.004 264.648 412.063 264.59C412.122 264.532 412.192 264.485 412.268 264.454C412.345 264.423 412.428 264.407 412.511 264.408H422.562C422.645 264.407 422.727 264.423 422.804 264.454C422.881 264.485 422.951 264.532 423.01 264.59C423.069 264.648 423.116 264.718 423.148 264.795C423.18 264.871 423.196 264.953 423.196 265.036C423.196 265.119 423.18 265.202 423.148 265.278C423.116 265.355 423.069 265.424 423.01 265.483C422.951 265.541 422.881 265.587 422.804 265.619C422.727 265.65 422.645 265.666 422.562 265.665Z" fill="white"/>
<path d="M366.004 157.57H354.063C353.406 157.57 352.771 157.332 352.275 156.901C351.779 156.47 351.456 155.875 351.363 155.225C350.626 149.797 350.626 144.295 351.363 138.868C351.455 138.226 351.772 137.636 352.258 137.207C352.744 136.777 353.368 136.534 354.017 136.523C357.774 134.838 361.82 134.839 366.046 136.523C366.439 136.528 366.827 136.619 367.181 136.79C367.536 136.961 367.848 137.208 368.097 137.513C368.357 137.83 368.543 138.2 368.642 138.598C368.74 138.996 368.749 139.411 368.667 139.813C367.708 144.587 367.708 149.505 368.667 154.28C368.749 154.682 368.74 155.097 368.642 155.494C368.543 155.892 368.357 156.263 368.097 156.58C367.844 156.89 367.525 157.14 367.163 157.311C366.801 157.483 366.405 157.571 366.004 157.57Z" fill="#FF4800"/>
<path d="M364.754 142.759H354.703C354.62 142.76 354.537 142.744 354.46 142.713C354.384 142.681 354.314 142.635 354.255 142.577C354.196 142.518 354.149 142.449 354.117 142.372C354.085 142.296 354.069 142.213 354.069 142.131C354.069 142.048 354.085 141.965 354.117 141.889C354.149 141.812 354.196 141.743 354.255 141.684C354.314 141.626 354.384 141.58 354.46 141.548C354.537 141.517 354.62 141.501 354.703 141.502H364.754C364.837 141.501 364.919 141.517 364.996 141.548C365.073 141.58 365.143 141.626 365.202 141.684C365.261 141.743 365.307 141.812 365.339 141.889C365.371 141.965 365.388 142.048 365.388 142.131C365.388 142.213 365.371 142.296 365.339 142.372C365.307 142.449 365.261 142.518 365.202 142.577C365.143 142.635 365.073 142.681 364.996 142.713C364.919 142.744 364.837 142.76 364.754 142.759Z" fill="white"/>
<path d="M364.754 147.785H354.703C354.62 147.786 354.537 147.77 354.46 147.739C354.384 147.708 354.314 147.662 354.255 147.603C354.196 147.545 354.149 147.475 354.117 147.399C354.085 147.322 354.069 147.24 354.069 147.157C354.069 147.074 354.085 146.992 354.117 146.915C354.149 146.839 354.196 146.769 354.255 146.711C354.314 146.652 354.384 146.606 354.46 146.575C354.537 146.544 354.62 146.528 354.703 146.529H364.754C364.837 146.528 364.919 146.544 364.996 146.575C365.073 146.606 365.143 146.652 365.202 146.711C365.261 146.769 365.307 146.839 365.339 146.915C365.371 146.992 365.388 147.074 365.388 147.157C365.388 147.24 365.371 147.322 365.339 147.399C365.307 147.475 365.261 147.545 365.202 147.603C365.143 147.662 365.073 147.708 364.996 147.739C364.919 147.77 364.837 147.786 364.754 147.785Z" fill="white"/>
<path d="M364.754 152.812H354.703C354.62 152.813 354.537 152.797 354.46 152.766C354.383 152.735 354.314 152.689 354.255 152.63C354.196 152.572 354.149 152.502 354.117 152.426C354.085 152.349 354.068 152.267 354.068 152.184C354.068 152.101 354.085 152.019 354.117 151.942C354.149 151.865 354.196 151.796 354.255 151.737C354.314 151.679 354.383 151.633 354.46 151.602C354.537 151.57 354.62 151.555 354.703 151.555H364.754C364.837 151.555 364.919 151.57 364.996 151.602C365.073 151.633 365.143 151.679 365.202 151.737C365.261 151.796 365.308 151.865 365.34 151.942C365.372 152.019 365.388 152.101 365.388 152.184C365.388 152.267 365.372 152.349 365.34 152.426C365.308 152.502 365.261 152.572 365.202 152.63C365.143 152.689 365.073 152.735 364.996 152.766C364.919 152.797 364.837 152.813 364.754 152.812Z" fill="white"/>
<path d="M156.363 188.221H144.421C143.764 188.221 143.13 187.983 142.634 187.553C142.138 187.122 141.814 186.526 141.722 185.876C140.984 180.449 140.984 174.947 141.722 169.52C141.813 168.877 142.13 168.288 142.616 167.858C143.103 167.428 143.726 167.186 144.375 167.174C148.133 165.49 152.179 165.49 156.404 167.174C156.798 167.179 157.185 167.271 157.54 167.442C157.894 167.613 158.207 167.859 158.456 168.164C158.716 168.481 158.901 168.852 159 169.25C159.098 169.648 159.107 170.062 159.025 170.464C158.066 175.239 158.066 180.157 159.025 184.932C159.107 185.333 159.098 185.748 159 186.146C158.901 186.544 158.716 186.915 158.456 187.232C158.202 187.542 157.883 187.791 157.521 187.963C157.159 188.134 156.763 188.222 156.363 188.221Z" fill="#FF4800"/>
<path d="M155.112 173.41H145.061C144.978 173.411 144.896 173.395 144.819 173.364C144.742 173.333 144.672 173.287 144.613 173.228C144.554 173.17 144.508 173.1 144.476 173.024C144.444 172.947 144.427 172.865 144.427 172.782C144.427 172.699 144.444 172.617 144.476 172.54C144.508 172.464 144.554 172.394 144.613 172.336C144.672 172.277 144.742 172.231 144.819 172.2C144.896 172.168 144.978 172.153 145.061 172.154H155.112C155.195 172.153 155.278 172.168 155.354 172.2C155.431 172.231 155.501 172.277 155.56 172.336C155.619 172.394 155.666 172.464 155.698 172.54C155.73 172.617 155.746 172.699 155.746 172.782C155.746 172.865 155.73 172.947 155.698 173.024C155.666 173.1 155.619 173.17 155.56 173.228C155.501 173.287 155.431 173.333 155.354 173.364C155.278 173.395 155.195 173.411 155.112 173.41Z" fill="white"/>
<path d="M155.112 178.437H145.061C144.978 178.438 144.896 178.422 144.819 178.391C144.742 178.359 144.672 178.313 144.613 178.255C144.554 178.196 144.508 178.127 144.476 178.05C144.444 177.974 144.427 177.891 144.427 177.808C144.427 177.725 144.444 177.643 144.476 177.567C144.508 177.49 144.554 177.421 144.613 177.362C144.672 177.304 144.742 177.258 144.819 177.226C144.896 177.195 144.978 177.179 145.061 177.18H155.112C155.195 177.179 155.278 177.195 155.354 177.226C155.431 177.258 155.501 177.304 155.56 177.362C155.619 177.421 155.666 177.49 155.698 177.567C155.73 177.643 155.746 177.725 155.746 177.808C155.746 177.891 155.73 177.974 155.698 178.05C155.666 178.127 155.619 178.196 155.56 178.255C155.501 178.313 155.431 178.359 155.354 178.391C155.278 178.422 155.195 178.438 155.112 178.437Z" fill="white"/>
<path d="M155.112 183.463H145.061C144.978 183.464 144.896 183.449 144.819 183.417C144.742 183.386 144.672 183.34 144.613 183.282C144.554 183.223 144.507 183.154 144.475 183.077C144.443 183 144.427 182.918 144.427 182.835C144.427 182.752 144.443 182.67 144.475 182.593C144.507 182.517 144.554 182.447 144.613 182.389C144.672 182.33 144.742 182.284 144.819 182.253C144.896 182.222 144.978 182.206 145.061 182.207H155.112C155.195 182.206 155.278 182.222 155.355 182.253C155.431 182.284 155.501 182.33 155.56 182.389C155.619 182.447 155.666 182.517 155.698 182.593C155.73 182.67 155.746 182.752 155.746 182.835C155.746 182.918 155.73 183 155.698 183.077C155.666 183.154 155.619 183.223 155.56 183.282C155.501 183.34 155.431 183.386 155.355 183.417C155.278 183.449 155.195 183.464 155.112 183.463Z" fill="white"/>
<path d="M427.312 255.154C427.89 254.813 428.386 254.349 428.765 253.795C429.144 253.241 429.397 252.611 429.506 251.948C429.616 251.286 429.578 250.608 429.397 249.961C429.216 249.315 428.895 248.716 428.458 248.207L436.659 234.101L428.194 234.578L421.704 247.901C420.898 248.692 420.41 249.753 420.333 250.88C420.256 252.008 420.596 253.124 421.287 254.019C421.978 254.913 422.973 255.522 424.083 255.731C425.194 255.941 426.342 255.735 427.312 255.154Z" fill="#FFB6B6"/>
<path d="M430.621 244.783L423.043 238.88L436.813 212.189L431.653 178.199C431.398 176.519 431.516 174.803 431.999 173.174C432.481 171.545 433.316 170.041 434.445 168.771C435.573 167.501 436.968 166.495 438.529 165.824C440.09 165.153 441.78 164.835 443.478 164.891C446.545 164.995 449.445 166.312 451.542 168.553C453.64 170.793 454.763 173.775 454.665 176.843L453.39 215.544L430.621 244.783Z" fill="#CCCCCC"/>
<path d="M64.3449 237.491C64.8222 237.011 65.1885 236.432 65.418 235.796C65.6475 235.159 65.7347 234.479 65.6733 233.805C65.6119 233.131 65.4035 232.479 65.0628 231.894C64.7221 231.309 64.2573 230.806 63.7012 230.421L71.0713 193.806L62.9323 196.42L57.0329 231.835C56.447 232.813 56.2399 233.971 56.4508 235.091C56.6618 236.211 57.2761 237.214 58.1774 237.911C59.0787 238.608 60.2043 238.951 61.341 238.873C62.4777 238.796 63.5465 238.304 64.3449 237.491Z" fill="#9E616A"/>
<path d="M75.2274 160.024L70.1775 156.211C70.1775 156.211 65.7227 155.896 64.9337 163.931C64.1448 171.966 62.5247 187.626 62.5247 187.626L54.7974 223.422L65.4941 225.771L73.7706 187.14L78.7357 175.668L75.2274 160.024Z" fill="#CCCCCC"/>
<path d="M66.9021 218.477L95.3583 218.002L97.7299 198.553H66.9021V218.477Z" fill="#9E616A"/>
<path d="M92.5125 338.159H99.0817L102.207 312.815L92.5111 312.816L92.5125 338.159Z" fill="#9E616A"/>
<path d="M51.3573 338.768L57.9265 338.721L60.8741 313.356L52.3303 315.317L51.3573 338.768Z" fill="#9E616A"/>
<path d="M71.9035 181.804L70.4152 185.675L70.7126 189.546L99.8444 199.638L98.3992 182.697L95.1243 178.826L71.9035 181.804Z" fill="#FFB6B6"/>
<path d="M84.4014 146.97C90.1478 146.97 94.8061 142.311 94.8061 136.563C94.8061 130.816 90.1478 126.156 84.4014 126.156C78.6551 126.156 73.9967 130.816 73.9967 136.563C73.9967 142.311 78.6551 146.97 84.4014 146.97Z" fill="#9E616A"/>
<path d="M90.8832 334.918L101.268 334.298V338.748L111.141 345.568C111.628 345.905 111.996 346.389 112.189 346.949C112.382 347.509 112.391 348.117 112.215 348.683C112.039 349.249 111.686 349.743 111.209 350.094C110.731 350.446 110.154 350.635 109.562 350.635H97.1983L95.0673 346.233L94.2352 350.635H89.5737L90.8832 334.918Z" fill="#2F2E41"/>
<path d="M49.1101 335.542L59.4902 334.849L59.5213 339.299L69.4418 346.05C69.9318 346.383 70.3025 346.864 70.4996 347.423C70.6968 347.982 70.7102 348.59 70.5378 349.157C70.3654 349.724 70.0162 350.221 69.5414 350.576C69.0665 350.93 68.4907 351.124 67.8981 351.128L55.5351 351.214L53.3733 346.828L52.5721 351.235L47.9107 351.268L49.1101 335.542Z" fill="#2F2E41"/>
<path d="M49.3132 319.336L54.0967 281.093L59.7879 240.772C55.6201 233.03 65.0049 208.989 65.0049 208.989L66.3296 209.053L96.3132 214.711L96.3068 214.682C102.439 231.412 104.471 239.677 104.135 257.493L102.927 321.536H103.306C103.935 321.536 104.538 321.786 104.983 322.231C105.427 322.676 105.677 323.279 105.677 323.908C105.677 324.537 105.427 325.141 104.983 325.585C104.538 326.03 103.935 326.28 103.306 326.28H91.4492C91.1375 326.281 90.8287 326.22 90.5405 326.101C90.2523 325.982 89.9904 325.807 89.7698 325.587C89.5492 325.367 89.3741 325.105 89.2547 324.817C89.1353 324.529 89.0738 324.22 89.0738 323.908C89.0738 323.596 89.1353 323.288 89.2547 323C89.3741 322.712 89.5492 322.45 89.7698 322.23C89.9904 322.009 90.2523 321.835 90.5405 321.716C90.8287 321.597 91.1375 321.536 91.4492 321.536H91.7549L80.8719 245.279L71.6447 277.298L61.2107 319.042C65.0049 318.093 64.4158 320.292 64.4158 321.536C64.4158 322.166 64.1659 322.769 63.7212 323.214C63.2765 323.658 62.6733 323.908 62.0444 323.908H50.1877C49.6362 323.909 49.1018 323.717 48.6767 323.366C48.2515 323.014 47.9622 322.526 47.8585 321.984C47.7549 321.442 47.8435 320.881 48.1091 320.398C48.3746 319.915 48.8004 319.539 49.3132 319.336Z" fill="#2F2E41"/>
<path d="M62.6703 210.235L63.6189 200.747C63.7174 200.36 63.9358 200.015 64.243 199.759C64.5501 199.504 64.9302 199.353 65.3286 199.327C65.7239 194.807 67.3867 175.31 67.486 174.46L67.4899 174.424L68.246 158.268C68.2735 157.682 68.5161 157.125 68.9275 156.706C69.3389 156.287 69.8903 156.034 70.4763 155.996L74.47 155.735C74.5248 155.733 74.5767 155.71 74.6148 155.67C74.6529 155.631 74.6742 155.578 74.6743 155.524C74.6742 155.082 74.7611 154.646 74.9299 154.238C75.0987 153.831 75.3461 153.46 75.6579 153.148C75.9698 152.836 76.34 152.589 76.7475 152.42C77.155 152.251 77.5917 152.164 78.0327 152.164H89.8569C90.6227 152.165 91.3621 152.445 91.9363 152.951C92.5105 153.458 92.88 154.157 92.9755 154.918C92.9807 154.97 93.0055 155.018 93.0449 155.053C93.0843 155.088 93.1354 155.107 93.1879 155.105H93.1893C94.5329 155.078 95.8418 155.533 96.8787 156.388C97.9155 157.243 98.6116 158.441 98.8405 159.766C100.457 169.173 103.697 190.524 102.095 202.393C101.537 206.525 102.739 203.253 102.95 206.71C102.971 207.044 102.926 207.379 102.817 207.695C102.709 208.012 102.538 208.304 102.317 208.555C102.771 208.72 103.141 209.057 103.348 209.494C103.555 209.931 103.581 210.431 103.421 210.887L103.629 210.836C103.568 211.077 103.46 211.304 103.311 211.504C103.162 211.704 102.976 211.873 102.762 212.001C102.548 212.128 102.311 212.213 102.065 212.249C101.818 212.285 101.567 212.273 101.325 212.212L70.3906 216.404C69.3746 216.148 62.4142 211.251 62.6703 210.235Z" fill="#CCCCCC"/>
<path d="M145.332 171.661C145.138 172.31 144.805 172.908 144.355 173.414C143.905 173.919 143.35 174.32 142.728 174.588C142.107 174.856 141.434 174.984 140.757 174.963C140.081 174.943 139.417 174.775 138.813 174.47L126.854 185.386L125.266 176.985L136.874 167.934C137.453 166.952 138.372 166.217 139.456 165.868C140.541 165.519 141.716 165.58 142.758 166.04C143.801 166.499 144.639 167.325 145.113 168.361C145.588 169.398 145.665 170.572 145.332 171.661Z" fill="#9E616A"/>
<path d="M103.707 163.317C103.707 163.317 99.5372 153.892 94.2703 155.765C89.0035 157.639 91.7229 166.784 91.7229 166.784L111.511 196.608C111.511 196.608 140.052 178.295 136.581 178.166C133.111 178.036 132.073 171.723 132.073 171.723L116.988 179.262L116.478 176.578L115.66 177.396L113.549 175.734L103.707 163.317Z" fill="#CCCCCC"/>
<path d="M444.832 152.963C452.855 152.963 459.359 146.458 459.359 138.433C459.359 130.409 452.855 123.904 444.832 123.904C436.809 123.904 430.306 130.409 430.306 138.433C430.306 146.458 436.809 152.963 444.832 152.963Z" fill="#FFB6B6"/>
<path d="M491.452 159.813C489.776 162.189 487.329 163.912 484.528 164.69C483.406 165.023 482.249 165.22 481.08 165.275C480.936 163.954 480.59 162.662 480.055 161.445C480.11 162.74 479.93 164.035 479.524 165.266C477.769 165.167 476.053 164.707 474.484 163.916C472.942 163.14 471.603 162.016 470.571 160.632C469.54 159.248 468.845 157.643 468.542 155.944C467.926 151.97 469.728 148.067 470.379 144.099C471.033 140.131 469.806 135.105 465.922 134.063C462.964 133.268 463.296 133.611 460.837 135.437C463.395 139.219 453.949 153.08 450.083 151.871C447.897 151.188 446.498 149.182 446.047 149.182C443.009 154.417 448.729 163.237 442.964 165.069L443.439 164.594C446.919 160.312 439.645 151.25 443.125 146.968C444.096 145.77 445.13 144.35 444.843 142.835C444.571 141.395 442.286 140.633 441.616 141.816C442.82 139.058 441.043 135.377 438.1 134.669C435.486 134.039 435.534 134.815 432.911 135.153C432.74 134.019 432.419 132.913 431.958 131.863C432.006 132.995 431.874 134.126 431.567 135.216C430.64 135.198 429.745 134.874 429.021 134.296C426.882 132.571 427.316 128.95 429.225 126.975C431.137 125 433.978 124.289 436.687 123.829C437.475 118.342 452.609 117.77 454.615 123.252C455.469 119.158 460.592 117.034 464.575 118.304C468.557 119.574 471.32 123.294 472.775 127.214C474.23 131.131 474.636 135.347 475.532 139.429C476.429 143.511 477.943 147.667 481.062 150.449C484.181 153.228 489.263 154.148 492.549 151.566C493.027 152.93 493.176 154.388 492.986 155.821C492.795 157.254 492.27 158.621 491.452 159.813Z" fill="#2F2E41"/>
<path d="M627.737 192.969L625.703 203.175C625.55 203.955 625.39 204.749 625.216 205.536C623.516 205.184 621.754 205.282 620.104 205.822C621.413 207.693 622.586 209.656 623.614 211.695C622.333 215.644 620.452 219.295 617.304 221.935C615.201 223.659 612.69 224.812 610.012 225.283C607.335 225.754 604.581 225.527 602.016 224.624L602.107 224.22C598.722 217.651 600.56 209.368 604.767 203.3C606.913 200.307 609.455 197.619 612.324 195.31C615.166 192.941 618.237 190.817 621.281 188.72C621.964 188.25 622.773 187.994 623.602 187.986C624.432 187.977 625.245 188.216 625.938 188.672C626.631 189.129 627.173 189.781 627.493 190.546C627.813 191.312 627.898 192.155 627.737 192.969Z" fill="#E4E4E4"/>
<path d="M602.74 249.18C601.884 242.943 601.004 236.627 601.604 230.323C602.138 224.725 603.845 219.257 607.322 214.773C609.167 212.398 611.413 210.363 613.957 208.76C614.621 208.342 615.231 209.393 614.571 209.809C610.168 212.592 606.763 216.702 604.846 221.545C602.728 226.932 602.389 232.803 602.756 238.525C602.977 241.985 603.444 245.421 603.916 248.856C603.954 249.011 603.931 249.175 603.852 249.314C603.773 249.453 603.644 249.557 603.491 249.604C603.336 249.646 603.17 249.625 603.03 249.545C602.89 249.466 602.787 249.334 602.743 249.179L602.74 249.18Z" fill="#F2F2F2"/>
<path d="M651.171 351.786L0.829274 352C0.609748 351.999 0.399436 351.912 0.244432 351.756C0.0894285 351.601 0.00238037 351.39 0.00238037 351.171C0.00238037 350.951 0.0894285 350.74 0.244432 350.585C0.399436 350.429 0.609748 350.342 0.829274 350.341L651.171 350.127C651.39 350.128 651.601 350.215 651.756 350.371C651.911 350.526 651.998 350.737 651.998 350.956C651.998 351.176 651.911 351.387 651.756 351.542C651.601 351.698 651.39 351.785 651.171 351.786Z" fill="#CACACA"/>
<path d="M72.1556 130.191C70.5598 130.957 68.7735 129.805 67.3958 128.663L67.8886 129.089C65.4537 131.458 64.3153 134.867 63.7591 138.223C63.2023 141.575 63.1402 145.003 62.4391 148.332C61.7375 151.657 60.2821 154.998 57.5636 157.034C53.9217 159.762 48.8987 159.587 44.4294 158.75C44.3699 158.738 44.3144 158.729 44.2548 158.717C45.4574 155.244 45.9462 151.564 45.692 147.898C44.494 151.572 42.4546 154.915 39.7362 157.662C36.7729 156.846 33.8806 155.792 31.0874 154.51C29.2801 153.678 27.3341 152.54 26.8325 150.614C26.3297 148.702 27.4974 146.697 29.0588 145.489C30.6202 144.282 32.5366 143.653 34.3154 142.793C36.0913 141.937 37.8487 140.716 38.5597 138.874C40.1997 134.636 35.5278 129.772 37.3485 125.606C38.2464 123.557 40.4456 122.443 42.5127 121.584C45.6683 120.276 48.9087 119.182 52.2117 118.312C55.1113 117.547 58.1389 116.952 61.0927 117.454C64.0465 117.955 66.9404 119.752 68.0035 122.558C69.7773 123.157 71.6606 123.833 72.799 125.327C73.9368 126.817 73.8451 129.381 72.1556 130.191Z" fill="#2F2E41"/>
<path d="M86.3544 125.28C81.7893 121.675 78.0982 122.291 75.2508 124.53C74.7721 123.998 72.735 125.463 72.0453 125.252L69.5506 129.937C68.2668 132.202 67.7402 134.515 67.9477 135.817C65.5863 142.44 71.186 146.913 77.8081 149.275C80.4505 150.224 83.3336 150.265 86.0023 149.393L86.0837 148.265L86.5852 149.19C86.5852 149.19 92.6391 161.657 94.0696 162.217C93.2016 159.965 90.9122 149.261 90.2732 147.03C89.3969 143.994 89.9955 139.171 90.5105 136.214C90.8315 134.391 90.8483 132.527 90.5602 130.699L90.5474 130.619L91.9639 133.479L95.1419 131.48C93.9273 127.942 93.9031 123.709 86.3544 125.28Z" fill="#2F2E41"/>
</g>
<defs>
<clipPath id="clip0_16_2">
<rect width="652" height="352" fill="white"/>
</clipPath>
</defs>
</svg>
