<svg width="24" height="22" viewBox="0 0 24 22" fill="none" xmlns="http://www.w3.org/2000/svg">
<path d="M15.3098 14.0341C12.5062 16.6014 8.01143 16.5662 5.25087 14.0496C5.24524 14.0449 5.23915 14.0393 5.23352 14.0341L2.08352 11.1466C-0.694756 8.59987 -0.694382 4.45644 2.08352 1.91007C4.86134 -0.63669 9.38196 -0.63669 12.1598 1.91007L13.8991 3.50447C14.3604 3.92728 14.0538 4.65543 13.402 4.67726C12.5712 4.7051 11.7366 4.84166 10.9307 5.09362C10.6578 5.17896 10.3559 5.11799 10.152 4.93107L9.53852 4.36874C8.22481 3.1645 6.08571 3.12673 4.75915 4.31911C3.41951 5.52327 3.41154 7.5025 4.73524 8.71589L7.88478 11.6034C9.20623 12.8147 11.3421 12.8097 12.6581 11.6034C12.8312 11.4444 12.9657 11.2842 13.0597 11.1591C13.126 11.0705 13.214 10.9974 13.3166 10.9456C13.4192 10.8938 13.5336 10.8647 13.6506 10.8605C14.146 10.8435 14.6564 11.0044 15.0478 11.3632L16.0347 12.2679C16.2935 12.5051 16.3253 12.8772 16.1159 13.1523C15.8759 13.4674 15.6062 13.7624 15.3098 14.0341ZM21.9164 20.0899C24.6943 17.5436 24.6947 13.4001 21.9164 10.8534L18.7664 7.96587C18.7608 7.96072 18.7547 7.95513 18.7491 7.9504C15.9885 5.43389 11.4937 5.39862 8.69018 7.96587C8.3938 8.23755 8.12408 8.53261 7.88412 8.84763C7.67468 9.12272 7.70651 9.49492 7.96526 9.7321L8.95221 10.6368C9.34362 10.9956 9.85404 11.1564 10.3494 11.1394C10.4664 11.1353 10.5808 11.1062 10.6834 11.0543C10.786 11.0025 10.874 10.9294 10.9403 10.8409C11.0343 10.7158 11.1688 10.5556 11.3419 10.3966C12.6579 9.19031 14.7938 9.18524 16.1152 10.3966L19.2648 13.2841C20.5885 14.4975 20.5805 16.4767 19.2409 17.6808C17.9143 18.8732 15.7752 18.8355 14.4615 17.6312L13.848 17.0689C13.6441 16.882 13.3422 16.821 13.0693 16.9063C12.2634 17.1583 11.4288 17.2949 10.598 17.3227C9.9462 17.3446 9.63963 18.0727 10.1009 18.4955L11.8402 20.0899C14.618 22.6367 19.1386 22.6367 21.9164 20.0899Z" fill="white"/>
</svg>
