<svg width="14" height="24" viewBox="0 0 14 24" fill="none" xmlns="http://www.w3.org/2000/svg">
<path d="M10.1699 10.9406L4.91873 9.45933C4.31096 9.29058 3.88795 8.74214 3.88795 8.13277C3.88795 7.36871 4.52976 6.74997 5.32229 6.74997H8.5459C9.13908 6.74997 9.72254 6.9234 10.2088 7.24215C10.5053 7.43434 10.904 7.38746 11.1569 7.1484L12.8489 5.55466C13.1941 5.23122 13.1455 4.69216 12.7614 4.40623C11.5702 3.50623 10.0823 3.00467 8.55562 2.99998V0.749996C8.55562 0.337498 8.20555 0 7.77768 0H6.22179C5.79392 0 5.44384 0.337498 5.44384 0.749996V2.99998H5.32229C2.2251 2.99998 -0.264328 5.56403 0.0225394 8.60621C0.22675 10.7671 1.93823 12.5249 4.09703 13.1343L9.08074 14.5406C9.6885 14.714 10.1115 15.2577 10.1115 15.8671C10.1115 16.6312 9.46971 17.2499 8.67718 17.2499H5.45357C4.86038 17.2499 4.27693 17.0765 3.79071 16.7577C3.49412 16.5655 3.09542 16.6124 2.84259 16.8515L1.15056 18.4452C0.805346 18.7687 0.853968 19.3077 1.23808 19.5937C2.42931 20.4936 3.91713 20.9952 5.44384 20.9999V23.2499C5.44384 23.6624 5.79392 23.9999 6.22179 23.9999H7.77768C8.20555 23.9999 8.55562 23.6624 8.55562 23.2499V20.9905C10.8214 20.9483 12.9461 19.6499 13.6949 17.5827C14.7403 14.6952 12.985 11.7328 10.1699 10.9406Z" fill="white"/>
</svg>
