<svg width="10" height="15" viewBox="0 0 10 15" fill="none" xmlns="http://www.w3.org/2000/svg">
<path d="M8.92857 6.27963H8.39286V4.26118C8.39286 1.91192 6.87054 0 5 0C3.12946 0 1.60714 1.91192 1.60714 4.26118V6.27963H1.07143C0.479911 6.27963 0 6.88236 0 7.62526V13.0078C0 13.7507 0.479911 14.3534 1.07143 14.3534H8.92857C9.52009 14.3534 10 13.7507 10 13.0078V7.62526C10 6.88236 9.52009 6.27963 8.92857 6.27963ZM6.60714 6.27963H3.39286V4.26118C3.39286 3.14822 4.11384 2.24272 5 2.24272C5.88616 2.24272 6.60714 3.14822 6.60714 4.26118V6.27963Z" fill="white"/>
</svg>
