<svg width="23" height="21" viewBox="0 0 23 21" fill="none" xmlns="http://www.w3.org/2000/svg">
<path fill-rule="evenodd" clip-rule="evenodd" d="M14.5872 7.09358C14.8707 7.47574 14.7835 8.01002 14.3922 8.28717C13.479 8.93377 12.4235 9.47342 12.379 9.49613C12.2497 9.56182 12.1115 9.59308 11.9752 9.59308C11.6597 9.59308 11.355 9.42581 11.1987 9.13376C10.9752 8.71523 11.1412 8.19902 11.5697 7.98047C11.5795 7.97558 12.5582 7.47451 13.3652 6.90312C13.7567 6.62621 14.3035 6.71168 14.5872 7.09358ZM20.9183 8.70985C20.7568 8.96991 20.3922 9.18089 20.0395 9.32813L19.5432 7.62786C19.9207 7.58342 20.34 7.58635 20.619 7.72798C20.741 7.78976 20.877 7.89158 20.9605 8.17753C21.0417 8.4559 20.9848 8.6029 20.9183 8.70985ZM13.8217 14.259C12.704 14.259 11.5702 14.3608 10.2352 14.5391L8.77621 9.53984L8.4177 8.3111C11.6102 6.89433 13.3095 5.79866 16.0902 2.92288L19.6445 15.1022C17.2725 14.5073 15.5672 14.259 13.8217 14.259ZM3.63744 15.3317C2.89543 14.9303 2.35768 14.2675 2.12343 13.4649C1.64193 11.8149 2.61143 10.0878 4.28319 9.61505L6.5337 8.98139L7.5677 12.5255L8.27795 14.9586L6.0207 15.5942C5.21719 15.8211 4.37069 15.7283 3.63744 15.3317ZM22.884 7.64203C22.6673 6.89946 22.2025 6.32952 21.54 5.99377C20.6852 5.56083 19.6825 5.61235 18.9897 5.73151L17.524 0.708841C17.4242 0.366736 17.142 0.104724 16.787 0.0248749C16.4322 -0.0547299 16.061 0.0597936 15.818 0.324492C12.2377 4.22293 10.7655 5.17257 6.8267 6.86576L3.72819 7.73824C1.00018 8.50938 -0.582578 11.3187 0.200175 14.0004C0.581177 15.3061 1.45793 16.3859 2.66868 17.0408C3.44019 17.4581 4.28844 17.6703 5.14544 17.6703C5.55094 17.6703 5.95845 17.6197 6.3607 17.5238L6.69545 18.6705C6.8717 19.2743 7.2107 19.8208 7.67595 20.2508L8.1962 20.7324C8.3897 20.9114 8.63696 21 8.88396 21C9.14896 21 9.41346 20.8977 9.60996 20.695C9.98996 20.3033 9.97271 19.6851 9.57196 19.3141L9.05096 18.8324C8.84621 18.6431 8.69671 18.4019 8.61871 18.1352L8.28445 16.9897L9.72521 16.5841C13.874 15.9798 15.7432 16.022 20.8175 17.439C20.9082 17.4642 21.0005 17.4766 21.0923 17.4766C21.3538 17.4766 21.6093 17.3763 21.7993 17.1907C22.056 16.9402 22.1538 16.5731 22.0543 16.232L20.5905 11.2172C21.249 10.9747 22.127 10.5229 22.6228 9.73226C23.0115 9.11178 23.102 8.38899 22.884 7.64203Z" fill="#BE6361"/>
</svg>
