<svg width="26" height="46" viewBox="0 0 26 46" fill="none" xmlns="http://www.w3.org/2000/svg">
<path fill-rule="evenodd" clip-rule="evenodd" d="M4 42H22V33.5H4V42ZM4 30.5H22V4H4V30.5ZM26 3.8V42.2C26 44.2955 24.2955 46 22.2 46H3.8C1.7045 46 0 44.2955 0 42.2V3.8C0 1.7045 1.7045 0 3.8 0H22.2C24.2955 0 26 1.7045 26 3.8ZM16.424 38C16.424 38.8285 15.7525 39.5 14.924 39.5H11.075C10.2465 39.5 9.575 38.8285 9.575 38C9.575 37.1715 10.2465 36.5 11.075 36.5H14.924C15.7525 36.5 16.424 37.1715 16.424 38Z" fill="#BE6361"/>
</svg>
