<svg width="21" height="20" viewBox="0 0 21 20" fill="none" xmlns="http://www.w3.org/2000/svg">
<path fill-rule="evenodd" clip-rule="evenodd" d="M16.377 8.24092C16.5602 8.43323 16.6627 8.69733 16.6627 8.96656C16.6627 9.23579 16.5602 9.50246 16.377 9.6922C16.1963 9.88451 15.9448 9.9922 15.686 9.9922C15.4296 9.9922 15.1781 9.88451 14.9976 9.6922C14.8145 9.50246 14.7092 9.23835 14.7092 8.96656C14.7092 8.69733 14.8145 8.43323 14.9976 8.24092C15.1781 8.05117 15.4296 7.94092 15.686 7.94092C15.9448 7.94092 16.1963 8.05117 16.377 8.24092ZM17.5562 6.75113C17.5875 7.24574 17.231 7.67318 16.7599 7.70574C16.7409 7.70703 16.7218 7.70779 16.7028 7.70779C16.2564 7.70779 15.8806 7.34395 15.8508 6.86933C15.7592 5.41497 14.854 5.17626 14.6733 5.14318C14.2057 5.076 13.8858 4.62446 13.9498 4.13344C14.014 3.64215 14.4521 3.30138 14.9197 3.36728C15.7656 3.48908 17.4055 4.35292 17.5562 6.75113ZM17.7948 9.72077C14.6301 13.4485 11.7475 16.3556 10.4999 17.5797C9.25313 16.3567 6.37295 13.4523 3.20512 9.72077C1.92656 8.21487 1.60839 6.37821 2.3324 4.6818C3.00367 3.10846 4.44217 2.05128 5.91168 2.05128C8.8258 2.05128 9.48535 4.34 9.55275 4.60821C9.66068 5.06051 10.0475 5.38462 10.4924 5.38462H10.5009C10.9446 5.38462 11.3341 5.06077 11.4469 4.60949C11.5121 4.34821 12.169 2.0541 15.0885 2.0541C16.5577 2.0541 17.9962 3.10974 18.6677 4.68308C19.3915 6.37949 19.0736 8.21487 17.7948 9.72077ZM20.4501 3.84282C19.454 1.50846 17.3494 0 15.0885 0C12.829 0 11.3634 1.04359 10.4999 2.1741C9.6365 1.04359 8.1709 0 5.91168 0C3.65076 0 1.54612 1.50846 0.549838 3.84282C-0.487466 6.27359 -0.0398721 8.98103 1.74708 11.0859C6.02743 16.1279 9.81012 19.7026 9.84772 19.7379C10.0333 19.9128 10.2667 20 10.4999 20C10.7334 20 10.9666 19.9128 11.1522 19.7379C11.1898 19.7026 14.9725 16.1279 19.2528 11.0859C21.0398 8.98103 21.4876 6.27359 20.4501 3.84282Z" fill="#BE6361"/>
</svg>
