<svg width="46" height="27" viewBox="0 0 46 27" fill="none" xmlns="http://www.w3.org/2000/svg">
<path fill-rule="evenodd" clip-rule="evenodd" d="M4 23V5.976L21.8075 19.199C22.1615 19.462 22.5805 19.5935 23 19.5935C23.419 19.5935 23.838 19.462 24.192 19.199L42 5.976V23H4ZM37.952 4L23 15.1025L8.048 4H37.952ZM45.9955 1.957C45.994 1.8825 45.983 1.8085 45.9735 1.7345C45.9655 1.677 45.9615 1.619 45.949 1.563C45.9345 1.4995 45.9115 1.438 45.8905 1.3755C45.87 1.3125 45.852 1.249 45.825 1.1885C45.802 1.137 45.771 1.088 45.743 1.0375C45.7065 0.972 45.6715 0.906 45.628 0.845C45.6195 0.833 45.6145 0.8195 45.6055 0.8075C45.5785 0.771 45.545 0.743 45.5155 0.7085C45.469 0.6545 45.4235 0.6 45.3715 0.5505C45.3235 0.505 45.2725 0.4665 45.221 0.4265C45.1705 0.387 45.121 0.348 45.0665 0.3135C45.0105 0.278 44.9515 0.2485 44.8925 0.219C44.836 0.1905 44.78 0.162 44.7205 0.139C44.658 0.115 44.594 0.0975 44.529 0.0795C44.469 0.063 44.4105 0.046 44.3485 0.035C44.275 0.022 44.2015 0.0175 44.127 0.013C44.084 0.01 44.0435 0 44 0H2C1.956 0 1.9145 0.01 1.871 0.013C1.7975 0.018 1.7245 0.0225 1.652 0.035C1.5895 0.046 1.53 0.0635 1.47 0.08C1.4055 0.098 1.342 0.115 1.28 0.139C1.22 0.162 1.164 0.1905 1.1075 0.219C1.048 0.249 0.9895 0.278 0.9335 0.3135C0.879 0.348 0.8295 0.387 0.779 0.4265C0.7275 0.4665 0.6765 0.505 0.6285 0.5505C0.5765 0.6 0.531 0.6545 0.4845 0.7085C0.4555 0.743 0.4215 0.771 0.3945 0.8075C0.3855 0.8195 0.3805 0.833 0.372 0.845C0.3285 0.906 0.2935 0.9715 0.257 1.0375C0.229 1.088 0.198 1.137 0.175 1.189C0.1485 1.249 0.1305 1.3125 0.1095 1.375C0.089 1.4375 0.0655 1.4995 0.051 1.563C0.0385 1.619 0.0345 1.677 0.027 1.7345C0.017 1.8085 0.006 1.8825 0.0045 1.957C0.004 1.9715 0 1.985 0 2V25C0 26.1045 0.8955 27 2 27H44C45.1045 27 46 26.1045 46 25V2C46 1.985 45.996 1.9715 45.9955 1.957Z" fill="#BE6361"/>
</svg>
