<svg width="46" height="41" viewBox="0 0 46 41" fill="none" xmlns="http://www.w3.org/2000/svg">
<path fill-rule="evenodd" clip-rule="evenodd" d="M42.5 36.446L35.5 33.1395V4.5435L42.5 7.85V36.446ZM25 7.85L32 4.5435V33.1395L25 36.446V7.85ZM3.5 7.85L10.5 4.5435V33.1395L3.5 36.446V7.85ZM21 36.446L14.5 33.1395V4.544L21 7.85V36.446ZM45.105 5.1155L34.552 0.1555C34.519 0.14 34.515 0.136 34.4815 0.1225C34.411 0.095 34.3565 0.0725 34.2835 0.054C34.212 0.036 34.1495 0.022 34.077 0.013C34.005 0.004 33.9375 0 33.864 0C33.7905 0 33.72 0.0035 33.647 0.013C33.575 0.022 33.506 0.036 33.435 0.054C33.362 0.0725 33.292 0.095 33.221 0.1225C33.188 0.136 33.1525 0.14 33.1195 0.1555L23.2525 4.766L13.386 0.1555C13.353 0.14 13.317 0.136 13.2835 0.1225C13.213 0.095 13.143 0.0725 13.0705 0.054C12.999 0.036 12.9285 0.022 12.856 0.013C12.7835 0.004 12.712 0 12.639 0C12.565 0 12.493 0.004 12.4195 0.013C12.348 0.022 12.278 0.036 12.207 0.054C12.134 0.0725 12.0635 0.095 11.9925 0.1225C11.959 0.136 11.9235 0.14 11.8905 0.1555L1.1475 5.1155C0.5245 5.4065 0 6.033 0 6.7215V39.228C0 39.8335 0.435 40.3975 0.945 40.7225C1.2335 40.9065 1.627 41 1.959 41C2.2135 41 2.5005 40.945 2.7385 40.834L12.622 36.2235L22.496 40.834C22.499 40.8355 22.506 40.8355 22.509 40.837C22.613 40.885 22.7235 40.9195 22.8335 40.9465C22.86 40.9525 22.887 40.958 22.914 40.9635C23.0255 40.985 23.1385 41 23.252 41C23.365 41 23.4775 40.985 23.589 40.9635C23.616 40.958 23.6425 40.9525 23.669 40.946C23.779 40.9195 23.8875 40.885 23.992 40.8365C23.9945 40.8355 23.9975 40.835 24 40.834L33.8675 36.2235L43.7355 40.834C43.9735 40.945 44.229 41 44.4835 41C44.815 41 45.019 40.9065 45.3075 40.7225C45.8175 40.3975 46 39.8335 46 39.228V6.7215C46 6.033 45.728 5.4065 45.105 5.1155Z" fill="#BE6361"/>
</svg>
