<svg width="27" height="23" viewBox="0 0 27 23" fill="none" xmlns="http://www.w3.org/2000/svg">
<path fill-rule="evenodd" clip-rule="evenodd" d="M27 2.72288C26.0066 3.18514 24.939 3.49646 23.8185 3.63679C24.9626 2.91863 25.8413 1.78066 26.2541 0.424528C25.1842 1.08962 23.9985 1.57311 22.7362 1.83373C21.7271 0.705189 20.286 0 18.693 0C15.1166 0 12.4886 3.49764 13.2964 7.12854C8.694 6.88679 4.6125 4.57547 1.87987 1.0625C0.428625 3.67217 1.12725 7.08608 3.59325 8.81486C2.6865 8.7842 1.8315 8.52359 1.08563 8.08844C1.02488 10.7783 2.86425 13.2948 5.52825 13.855C4.74863 14.0767 3.89475 14.1285 3.02625 13.954C3.7305 16.2606 5.77575 17.9387 8.20125 17.9858C5.8725 19.8998 2.9385 20.7547 0 20.3915C2.45138 22.0389 5.364 23 8.4915 23C18.7762 23 24.5869 13.895 24.2359 5.72877C25.3181 4.9092 26.2575 3.88679 27 2.72288Z" fill="white"/>
</svg>
