<svg width="23" height="22" viewBox="0 0 23 22" fill="none" xmlns="http://www.w3.org/2000/svg">
<path fill-rule="evenodd" clip-rule="evenodd" d="M2.525 19.9535C3.62775 18.7593 6.2655 17.4294 8.46975 16.6433L10.8522 18.7166C11.2257 19.0418 11.7745 19.0418 12.148 18.7166L14.5305 16.6433C16.7348 17.4294 19.3725 18.7593 20.4753 19.9535H2.525ZM14.6165 14.515C14.2875 14.4071 13.9277 14.4813 13.6648 14.7102L11.5 16.5938L9.3355 14.7102C9.0725 14.4813 8.71275 14.4071 8.38375 14.515C6.98375 14.9719 0 17.4313 0 20.9766C0 21.5417 0.44775 21.9999 1 21.9999H22C22.5522 21.9999 23 21.5417 23 20.9766C23 17.4313 16.0163 14.9719 14.6165 14.515ZM11.5 2.04663C14.109 2.04663 16.2315 4.23205 16.2315 6.91861C16.2315 9.60568 14.109 11.7916 11.5 11.7916C8.89124 11.7916 6.76874 9.60568 6.76874 6.91861C6.76874 4.23205 8.89124 2.04663 11.5 2.04663ZM11.5 13.838C15.2118 13.838 18.2315 10.734 18.2315 6.91849C18.2315 3.10353 15.2118 0 11.5 0C7.7885 0 4.76875 3.10353 4.76875 6.91849C4.76875 10.734 7.7885 13.838 11.5 13.838Z" fill="#BE6361"/>
</svg>
