<svg width="23" height="23" viewBox="0 0 23 23" fill="none" xmlns="http://www.w3.org/2000/svg">
<path fill-rule="evenodd" clip-rule="evenodd" d="M5.98827 17.8625C5.74202 18.1085 5.18902 18.2757 4.62452 18.371C4.72227 17.8017 4.89277 17.2502 5.13227 17.011C5.29577 16.8477 5.45127 16.7387 5.62002 16.7387C5.74977 16.7387 5.88727 16.8032 6.04177 16.9575C6.18051 17.0962 6.26001 17.2497 6.26001 17.379C6.26001 17.5542 6.11227 17.7387 5.98827 17.8625ZM3.71903 15.596C2.56978 16.744 2.52478 19.0435 2.52728 19.4897C2.53053 20.0372 2.97353 20.5 3.52128 20.5H3.55378C4.06852 20.5 6.27801 20.4157 7.40176 19.2937C8.11101 18.585 8.26 17.862 8.26 17.387C8.26 16.7212 7.97426 16.0652 7.45501 15.5465C6.18951 14.2825 4.63127 14.6845 3.71903 15.596ZM17.7967 5.21249C18.0992 5.51499 18.2717 5.93499 18.2717 6.36249C18.2717 6.78999 18.0992 7.20749 17.7967 7.50999C17.4942 7.81249 17.0742 7.98749 16.6467 7.98749C16.2192 7.98749 15.8017 7.81249 15.4992 7.50999C15.1967 7.20749 15.0217 6.78999 15.0217 6.36249C15.0217 5.93499 15.1967 5.51499 15.4992 5.21249C15.7992 4.90999 16.2192 4.73748 16.6467 4.73748C17.0742 4.73748 17.4942 4.90999 17.7967 5.21249ZM11.3362 15.1755L7.81151 11.6547C9.578 6.92299 13.9652 1.86698 20.9932 2.00373C21.2294 10.3792 14.3142 14.007 11.3362 15.1755ZM13.3137 19.6502C13.349 18.636 13.1217 17.6547 12.655 16.7992C13.381 16.4912 14.0835 16.1435 14.7575 15.7617C15.0267 17.1972 14.3885 18.5772 13.3137 19.6502ZM3.35328 9.69349C4.41727 8.63149 5.78252 7.99699 7.20501 8.24649C6.81326 8.93699 6.47301 9.63874 6.18276 10.3387C5.33177 9.88049 4.35777 9.65799 3.35328 9.69349ZM22.9369 0.964482C22.8957 0.476231 22.5064 0.089731 22.0177 0.051981C15.7042 -0.439269 11.1567 2.61623 8.34725 6.47549C6.79451 5.96674 5.12752 6.14824 3.60728 7.00474C2.14303 7.82949 0.895788 9.21924 0.0955415 10.918C-0.0879577 11.307 -0.00195802 11.7697 0.309041 12.067C0.619789 12.3642 1.08604 12.4295 1.46629 12.2287C3.06728 11.3845 4.87002 11.5435 5.95252 12.6245L10.3605 17.0277C10.3685 17.0362 10.374 17.046 10.3822 17.0545C11.4637 18.1347 11.623 19.9345 10.7782 21.5327C10.5775 21.913 10.642 22.3792 10.939 22.6903C11.1322 22.8927 11.3952 23 11.6627 23C11.8065 23 11.9517 22.969 12.088 22.905C13.7882 22.1055 15.1795 20.8595 16.0052 19.3967C16.8677 17.8687 17.0472 16.1922 16.5265 14.6325C17.6602 13.8187 18.6752 12.9015 19.5277 11.9065C22.1452 8.85149 23.2922 5.17024 22.9369 0.964482Z" fill="#BE6361"/>
</svg>
