<svg width="22" height="21" viewBox="0 0 22 21" fill="none" xmlns="http://www.w3.org/2000/svg">
<path fill-rule="evenodd" clip-rule="evenodd" d="M11 14.9958C11.1892 14.9958 11.3783 15.0493 11.5437 15.1565L15.4973 17.718L14.278 13.3972C14.1715 13.02 14.2955 12.6152 14.595 12.362L18.4792 9.0785L14.0183 8.7575C13.6538 8.73125 13.3325 8.50825 13.1805 8.176L11 3.40525L8.8195 8.176C8.6675 8.50825 8.34625 8.73125 7.98175 8.7575L3.52075 9.0785L7.405 12.362C7.7045 12.6152 7.8285 13.02 7.722 13.3972L6.50275 17.718L10.4563 15.1565C10.6217 15.0493 10.8108 14.9958 11 14.9958ZM17.18 21C16.9913 21 16.8023 20.9465 16.6365 20.8393L11 17.1873L5.3635 20.8393C5.014 21.0655 4.56125 21.0515 4.22625 20.8048C3.89125 20.5578 3.7445 20.129 3.8575 19.7283L5.62225 13.4738L0.354499 9.021C0.0439987 8.7585 -0.0767514 8.33425 0.0492486 7.9475C0.175249 7.561 0.522749 7.289 0.928249 7.26L7.24675 6.80525L10.0905 0.58425C10.2533 0.22825 10.6088 0 11 0C11.3912 0 11.7467 0.22825 11.9095 0.58425L14.7533 6.80525L21.0718 7.26C21.4773 7.289 21.8248 7.561 21.9508 7.9475C22.0768 8.33425 21.956 8.7585 21.6455 9.021L16.3778 13.4738L18.1425 19.7283C18.2555 20.129 18.1087 20.5578 17.7738 20.8048C17.5977 20.9345 17.3892 21 17.18 21Z" fill="#BE6361"/>
</svg>
